<svg width="9" height="12" viewBox="0 0 9 12" fill="none" xmlns="http://www.w3.org/2000/svg">
<path fill-rule="evenodd" clip-rule="evenodd" d="M0.399963 4.48591C0.399963 6.80825 3.1926 11.8661 4.66663 11.8661C6.14066 11.8661 8.9333 6.80825 8.9333 4.48591C8.9333 2.08446 7.02581 0.132812 4.66663 0.132812C2.30745 0.132812 0.399963 2.08446 0.399963 4.48591ZM6.46789 8.44267C5.71954 9.79804 4.87952 10.7995 4.66663 10.7995C4.45374 10.7995 3.61372 9.79804 2.86537 8.44267C2.03387 6.9367 1.46663 5.3591 1.46663 4.48591C1.46663 2.66817 2.90209 1.19948 4.66663 1.19948C6.43117 1.19948 7.86663 2.66817 7.86663 4.48591C7.86663 5.3591 7.29939 6.9367 6.46789 8.44267ZM4.66663 6.53281C3.48842 6.53281 2.5333 5.57769 2.5333 4.39948C2.5333 3.22127 3.48842 2.26615 4.66663 2.26615C5.84484 2.26615 6.79996 3.22127 6.79996 4.39948C6.79996 5.57769 5.84484 6.53281 4.66663 6.53281ZM5.7333 4.39948C5.7333 4.98858 5.25573 5.46615 4.66663 5.46615C4.07753 5.46615 3.59996 4.98858 3.59996 4.39948C3.59996 3.81038 4.07753 3.33281 4.66663 3.33281C5.25573 3.33281 5.7333 3.81038 5.7333 4.39948Z" fill="#FF715B"/>
</svg>
