<svg width="32" height="32" viewBox="0 0 32 32" fill="none" xmlns="http://www.w3.org/2000/svg">
<rect width="32" height="32" rx="16" fill="#F4A241"/>
<path d="M20.8125 17.75H19.9375C19.6914 17.75 19.5 17.9688 19.5 18.1875V21.25H10.75V12.5H14.6875C14.9062 12.5 15.125 12.3086 15.125 12.0625V11.1875C15.125 10.9688 14.9062 10.75 14.6875 10.75H10.3125C9.57422 10.75 9 11.3516 9 12.0625V21.6875C9 22.4258 9.57422 23 10.3125 23H19.9375C20.6484 23 21.25 22.4258 21.25 21.6875V18.1875C21.25 17.9688 21.0312 17.75 20.8125 17.75ZM21.9609 9H17.6406C17.2031 9 16.875 9.35547 16.875 9.76562V10.2852C16.875 10.6953 17.2031 11.0234 17.6133 11.0234C17.6406 11.0234 17.6406 11.0234 17.6406 11.0234L19.5 10.9688L12.6914 17.75C12.582 17.8594 12.4727 18.0508 12.4727 18.2148C12.4727 18.3516 12.582 18.5703 12.6914 18.6797L13.3203 19.3086H13.3477C13.4297 19.418 13.6484 19.5 13.7852 19.5C13.9492 19.5 14.168 19.418 14.25 19.3086L21.0312 12.5L20.9766 14.3594C20.9766 14.7969 21.3047 15.125 21.7422 15.125H22.2344C22.6445 15.125 23 14.7969 23 14.3594V10.0391C23 9.46484 22.5352 9 21.9609 9Z" fill="white"/>
</svg>
