<svg width="32" height="32" viewBox="0 0 32 32" fill="none" xmlns="http://www.w3.org/2000/svg">
<rect width="32" height="32" rx="16" fill="#F4A241"/>
<path d="M16 9C11.5625 9 8 12.5938 8 17V18.5C8 18.8438 8.21875 19.25 8.53125 19.4062L9 19.625C9.0625 21.5 10.5938 23 12.5 23H13.25C13.6562 23 14 22.6875 14 22.25V16.75C14 16.3438 13.6562 16 13.25 16H12.5C11.5 16 10.625 16.4062 10 17.0625V17C10 13.7188 12.6875 11 16 11C19.2812 11 22 13.7188 22 17V17.0625C21.3438 16.4062 20.4688 16 19.5 16H18.75C18.3125 16 18 16.3438 18 16.75V22.25C18 22.6875 18.3125 23 18.75 23H19.5C21.375 23 22.9062 21.5 22.9688 19.625L23.4375 19.4062C23.75 19.25 24 18.8438 24 18.5V17C24 12.5938 20.4062 9 16 9Z" fill="white"/>
</svg>
