<svg width="20" height="20" viewBox="0 0 20 20" fill="none" xmlns="http://www.w3.org/2000/svg">
<path d="M11.9212 9.75L17.9563 3.77344L19.1868 2.54297C19.3626 2.36719 19.3626 2.07422 19.1868 1.83984L17.8977 0.550781C17.6633 0.375 17.3704 0.375 17.1946 0.550781L9.98757 7.81641L2.72194 0.550781C2.54616 0.375 2.25319 0.375 2.01882 0.550781L0.729753 1.83984C0.553972 2.07422 0.553972 2.36719 0.729753 2.54297L7.99538 9.75L0.729753 17.0156C0.553972 17.1914 0.553972 17.4844 0.729753 17.7188L2.01882 19.0078C2.25319 19.1836 2.54616 19.1836 2.72194 19.0078L9.98757 11.7422L15.9641 17.7773L17.1946 19.0078C17.3704 19.1836 17.6633 19.1836 17.8977 19.0078L19.1868 17.7188C19.3626 17.4844 19.3626 17.1914 19.1868 17.0156L11.9212 9.75Z" fill="black"/>
</svg>
