<svg width="32" height="32" viewBox="0 0 32 32" fill="none" xmlns="http://www.w3.org/2000/svg">
<rect width="32" height="32" rx="16" fill="#F4A241"/>
<path d="M21.25 8.99414H10.75C9.76562 8.99414 9 9.78711 9 10.7441V18.6191C9 19.6035 9.76562 20.3691 10.75 20.3691H13.375V22.666C13.375 22.9395 13.6758 23.1035 13.8945 22.9395L17.3125 20.3691H21.25C22.207 20.3691 23 19.6035 23 18.6191V10.7441C23 9.78711 22.207 8.99414 21.25 8.99414ZM12.5 15.5566C12.0078 15.5566 11.625 15.1738 11.625 14.6816C11.625 14.2168 12.0078 13.8066 12.5 13.8066C12.9648 13.8066 13.375 14.2168 13.375 14.6816C13.375 15.1738 12.9648 15.5566 12.5 15.5566ZM16 15.5566C15.5078 15.5566 15.125 15.1738 15.125 14.6816C15.125 14.2168 15.5078 13.8066 16 13.8066C16.4648 13.8066 16.875 14.2168 16.875 14.6816C16.875 15.1738 16.4648 15.5566 16 15.5566ZM19.5 15.5566C19.0078 15.5566 18.625 15.1738 18.625 14.6816C18.625 14.2168 19.0078 13.8066 19.5 13.8066C19.9648 13.8066 20.375 14.2168 20.375 14.6816C20.375 15.1738 19.9648 15.5566 19.5 15.5566Z" fill="white"/>
</svg>
