<svg width="30" height="18" viewBox="0 0 30 18" fill="none" xmlns="http://www.w3.org/2000/svg">
<path d="M28.4062 3.9375L16.3125 0.234375C15.4219 -0.046875 14.5312 -0.046875 13.6406 0.234375L1.54688 3.9375C0.609375 4.26562 0 5.0625 0 6.04688C0 6.98438 0.609375 7.78125 1.54688 8.10938L2.57812 8.4375C2.48438 8.67188 2.39062 8.90625 2.34375 9.1875C1.82812 9.42188 1.5 9.9375 1.5 10.5469C1.5 11.0156 1.73438 11.4375 2.10938 11.7188L0.9375 17.1094C0.84375 17.5781 1.17188 18 1.64062 18H4.3125C4.78125 18 5.10938 17.5781 5.01562 17.1094L3.84375 11.7188C4.21875 11.4375 4.5 11.0156 4.5 10.5469C4.5 10.0312 4.21875 9.60938 3.84375 9.32812C3.89062 9.1875 3.98438 9 4.07812 8.85938L6.65625 9.65625L6 15C6 16.6875 9.98438 18 15 18C19.9688 18 24 16.6875 24 15L23.2969 9.65625L28.4062 8.10938C29.3438 7.78125 30 6.98438 30 6.04688C30 5.0625 29.3438 4.26562 28.4062 3.9375ZM21.6562 14.5781C18.8438 16.1719 11.0625 16.1719 8.29688 14.5781L8.8125 10.3594L13.6406 11.8125C14.1562 12 15.1406 12.1875 16.3125 11.8125L21.1406 10.3594L21.6562 14.5781ZM15.6562 9.65625C15.2344 9.79688 14.7188 9.79688 14.2969 9.65625L7.21875 7.5L15.0938 6C15.5156 5.95312 15.7969 5.53125 15.7031 5.15625C15.6562 4.73438 15.2344 4.45312 14.8594 4.54688L5.29688 6.32812C4.96875 6.375 4.6875 6.51562 4.40625 6.60938L2.48438 6L14.2969 2.39062C14.7188 2.25 15.2344 2.25 15.6562 2.39062L27.4688 6.04688L15.6562 9.65625Z" fill="black"/>
</svg>
