<svg width="16" height="16" viewBox="0 0 16 16" fill="none" xmlns="http://www.w3.org/2000/svg">
<path d="M14 0H2C0.875 0 0 0.90625 0 2V11C0 12.125 0.875 13 2 13H5V15.625C5 15.875 5.15625 16 5.375 16C5.4375 16 5.5 16 5.59375 15.9375L9.5 13H14C15.0938 13 16 12.125 16 11V2C16 0.90625 15.0938 0 14 0ZM15 11C15 11.5625 14.5312 12 14 12H9.15625L8.875 12.2188L6 14.375V12H2C1.4375 12 1 11.5625 1 11V2C1 1.46875 1.4375 1 2 1H14C14.5312 1 15 1.46875 15 2V11ZM8.75 7.5H4.25C4.09375 7.5 4 7.625 4 7.75V8.25C4 8.40625 4.09375 8.5 4.25 8.5H8.75C8.875 8.5 9 8.40625 9 8.25V7.75C9 7.625 8.875 7.5 8.75 7.5ZM11.75 4.5H4.25C4.09375 4.5 4 4.625 4 4.75V5.25C4 5.40625 4.09375 5.5 4.25 5.5H11.75C11.875 5.5 12 5.40625 12 5.25V4.75C12 4.625 11.875 4.5 11.75 4.5Z" fill="black"/>
</svg>
