<svg width="36" height="36" viewBox="0 0 36 36" fill="none" xmlns="http://www.w3.org/2000/svg">
<circle cx="18" cy="18" r="17" fill="#D55827" stroke="white" stroke-width="2"/>
<path d="M24.4805 11.3086L23.4414 10.2695C23.1133 9.94141 22.6484 9.75 22.2109 9.75C21.7734 9.75 21.3086 9.94141 20.9805 10.2695L18.9297 12.3203L18 13.25L11.3281 19.9219L11 23.0391C10.9453 23.4219 11.2461 23.75 11.6289 23.75C11.6562 23.75 11.6836 23.75 11.7109 23.75L14.8281 23.4219L21.5 16.75L22.4297 15.8203L24.4805 13.7695C25.1641 13.0859 25.1641 11.9922 24.4805 11.3086ZM14.2266 22.1641L12.3945 22.3555L12.5859 20.5234L18.9023 14.1797L19.75 13.332L21.418 15L20.5703 15.8477L14.2266 22.1641ZM23.5508 12.8398L22.3477 14.0703L20.6797 12.4023L21.9102 11.1992C22.0195 11.0898 22.1562 11.0625 22.2109 11.0625C22.2656 11.0625 22.4023 11.0898 22.5117 11.1992L23.5508 12.2383C23.7148 12.4023 23.7148 12.6758 23.5508 12.8398Z" fill="white"/>
</svg>
