<svg width="72" height="72" viewBox="0 0 72 72" fill="none" xmlns="http://www.w3.org/2000/svg">
<circle cx="36" cy="36" r="36" fill="#D55827"/>
<path d="M39.4102 23.6387C41.4414 23.6387 43.1602 21.998 43.1602 19.8887C43.1602 17.8574 41.4414 16.1387 39.4102 16.1387C37.3008 16.1387 35.6602 17.8574 35.6602 19.8887C35.6602 21.998 37.3008 23.6387 39.4102 23.6387ZM46.7539 35.3574L44.957 34.4199L44.1758 32.0762C43.0039 28.6387 39.8008 26.2168 36.207 26.1387C33.3945 26.1387 31.832 26.998 28.9414 28.1699C27.2227 28.7949 25.8164 30.123 25.0352 31.7637L24.4883 32.7793C23.8633 34.0293 24.4102 35.5137 25.582 36.1387C26.832 36.7637 28.3164 36.2949 28.9414 35.0449L29.4883 33.9512C29.7227 33.4043 30.1914 33.0137 30.7383 32.7793L32.8477 31.9199L31.6758 36.6855C31.207 38.3262 31.6758 40.0449 32.8477 41.2949L37.457 46.373C38.082 46.998 38.4727 47.7793 38.6289 48.5605L40.1133 54.2637C40.4258 55.5918 41.7539 56.4512 43.082 56.0605C44.4883 55.748 45.2695 54.4199 44.957 53.0918L43.2383 46.1387C43.0039 45.2793 42.6133 44.5762 42.0664 43.9512L38.4727 40.0449L39.8008 34.7324L40.2695 35.9824C40.6602 37.2324 41.5977 38.248 42.7695 38.873L44.5664 39.8105C45.7383 40.4355 47.2227 39.8887 47.8477 38.7168C48.4727 37.4668 48.0039 35.9043 46.7539 35.3574ZM28.8633 46.2949C28.6289 46.9199 28.2383 47.5449 27.7695 48.0137L23.8633 51.9199C22.8477 52.8574 22.8477 54.498 23.8633 55.4355C24.8008 56.4512 26.4414 56.4512 27.3789 55.4355L32.0664 50.8262C32.5352 50.3574 32.8477 49.7324 33.1602 49.1074L34.1758 46.4512C29.8789 41.7637 31.207 43.248 30.5039 42.3105L28.8633 46.2949Z" fill="white"/>
</svg>
