<svg width="45" height="40" viewBox="0 0 45 40" fill="none" xmlns="http://www.w3.org/2000/svg">
<path d="M37.5 10C40.2344 10 42.5 7.8125 42.5 5C42.5 2.26562 40.2344 0 37.5 0C34.6875 0 32.5 2.26562 32.5 5C32.5 7.8125 34.6875 10 37.5 10ZM37.5 2.5C38.8281 2.5 40 3.67188 40 5C40 6.40625 38.8281 7.5 37.5 7.5C36.0938 7.5 35 6.40625 35 5C35 3.67188 36.0938 2.5 37.5 2.5ZM40 12.5H35H34.9219C33.5938 12.5 31.875 13.3594 31.0156 14.4531C31.7969 14.5312 32.9688 15 33.5938 15.4688C33.9844 15.2344 34.4531 15 35 15H40C41.3281 15 42.5 16.1719 42.5 17.5V27.5H40V37.5H35V30.7812L34.0625 31.7188C33.6719 32.1094 32.9688 32.5781 32.5 32.8125V37.5C32.5 38.9062 33.5938 40 35 40H40C41.3281 40 42.5 38.9062 42.5 37.5V30C43.8281 30 45 28.9062 45 27.5V17.5C45 14.7656 42.7344 12.5 40 12.5ZM10 30.7812V37.5H5V27.5H2.5V17.5C2.5 16.1719 3.59375 15 5 15H10C10.4688 15 10.9375 15.2344 11.3281 15.4688C11.9531 15 13.125 14.5312 13.9062 14.4531C13.0469 13.4375 11.3281 12.5781 10 12.5H5C2.1875 12.5 0 14.7656 0 17.5V27.5C0 28.9062 1.09375 30 2.5 30V37.5C2.5 38.9062 3.59375 40 5 40H10C11.3281 40 12.5 38.9062 12.5 37.5V32.8125C11.9531 32.5781 11.25 32.1094 10.9375 31.7188L10 30.7812ZM7.5 10C10.2344 10 12.5 7.8125 12.5 5C12.5 2.26562 10.2344 0 7.5 0C4.6875 0 2.5 2.26562 2.5 5C2.5 7.8125 4.6875 10 7.5 10ZM7.5 2.5C8.82812 2.5 10 3.67188 10 5C10 6.40625 8.82812 7.5 7.5 7.5C6.09375 7.5 5 6.40625 5 5C5 3.67188 6.09375 2.5 7.5 2.5ZM36.875 23.75C36.875 23.2031 36.5625 22.4219 36.1719 22.0312L31.7188 17.6562C30.0781 16.0156 27.5 17.2656 27.5 19.375V22.5H17.5V19.375C17.5 17.2656 14.8438 16.0156 13.2031 17.6562L8.75 22.0312C8.35938 22.4219 8.04688 23.2031 8.04688 23.75C8.04688 24.375 8.35938 25.1562 8.75 25.5469L13.2031 29.9219C14.8438 31.5625 17.5 30.2344 17.5 28.125V25H27.5V28.125C27.5 30.2344 30.0781 31.5625 31.7188 29.9219L36.1719 25.5469C36.5625 25.1562 36.875 24.375 36.875 23.75ZM15 28.125L10.5469 23.75L15 19.375V28.125ZM30 28.125V19.375L34.375 23.75L30 28.125Z" fill="#4C4C4C"/>
</svg>
