<svg width="32" height="32" viewBox="0 0 32 32" fill="none" xmlns="http://www.w3.org/2000/svg">
<rect width="32" height="32" rx="16" fill="#F4A241"/>
<path d="M17.707 10.3701C18.6198 10.3701 19.3921 9.63286 19.3921 8.68503C19.3921 7.77231 18.6198 7 17.707 7C16.7592 7 16.022 7.77231 16.022 8.68503C16.022 9.63286 16.7592 10.3701 17.707 10.3701ZM21.0069 15.6358L20.1995 15.2145L19.8484 14.1614C19.3219 12.6168 17.8826 11.5285 16.2677 11.4934C15.004 11.4934 14.3019 11.8796 13.003 12.4061C12.2307 12.687 11.5988 13.2838 11.2478 14.021L11.002 14.4773C10.7212 15.039 10.9669 15.706 11.4935 15.9868C12.0552 16.2677 12.7222 16.057 13.003 15.4954L13.2487 15.0039C13.354 14.7582 13.5647 14.5826 13.8104 14.4773L14.7582 14.0912L14.2317 16.2326C14.021 16.9698 14.2317 17.7421 14.7582 18.3038L16.8294 20.5856C17.1103 20.8664 17.2858 21.2175 17.356 21.5685L18.023 24.1312C18.1634 24.7279 18.7602 25.1141 19.357 24.9386C19.9889 24.7981 20.3399 24.2014 20.1995 23.6046L19.4272 20.4803C19.3219 20.0941 19.1463 19.7782 18.9006 19.4973L17.2858 17.7421L17.8826 15.3549L18.0932 15.9166C18.2687 16.4783 18.69 16.9347 19.2165 17.2155L20.024 17.6368C20.5505 17.9176 21.2175 17.6719 21.4984 17.1453C21.7792 16.5836 21.5686 15.8815 21.0069 15.6358ZM12.9679 20.5505C12.8626 20.8313 12.687 21.1121 12.4764 21.3228L10.7212 23.078C10.2648 23.4993 10.2648 24.2365 10.7212 24.6577C11.1424 25.1141 11.8796 25.1141 12.3009 24.6577L14.4072 22.5865C14.6178 22.3759 14.7582 22.0951 14.8987 21.8142L15.355 20.6207C13.4242 18.5144 14.021 19.1814 13.7051 18.7601L12.9679 20.5505Z" fill="white"/>
</svg>
