<svg width="72" height="72" viewBox="0 0 72 72" fill="none" xmlns="http://www.w3.org/2000/svg">
<path d="M72 36C72 16.1177 55.8823 0 36 0C16.1177 0 0 16.1177 0 36C0 55.8823 16.1177 72 36 72C55.8823 72 72 55.8823 72 36Z" fill="#D55827"/>
<path d="M46.8281 39.9375H44.8594C44.3056 39.9375 43.875 40.4298 43.875 40.9219V47.8125H24.1875V28.125H33.0469C33.539 28.125 34.0312 27.6944 34.0312 27.1406V25.1719C34.0312 24.6798 33.539 24.1875 33.0469 24.1875H23.2031C21.542 24.1875 20.25 25.5411 20.25 27.1406V48.7969C20.25 50.4581 21.542 51.75 23.2031 51.75H44.8594C46.4589 51.75 47.8125 50.4581 47.8125 48.7969V40.9219C47.8125 40.4298 47.3202 39.9375 46.8281 39.9375ZM49.412 20.25H39.6914C38.707 20.25 37.9688 21.0498 37.9688 21.9726V23.1417C37.9688 24.0644 38.707 24.8027 39.6299 24.8027C39.6913 24.8027 39.6914 24.8027 39.6914 24.8027L43.875 24.6798L28.5556 39.9375C28.3095 40.1836 28.0636 40.6143 28.0636 40.9833C28.0636 41.2911 28.3095 41.7832 28.5556 42.0293L29.9707 43.4443H30.0323C30.2168 43.6905 30.7089 43.875 31.0167 43.875C31.3857 43.875 31.878 43.6905 32.0625 43.4443L47.3202 28.125L47.1974 32.3086C47.1974 33.293 47.9356 34.0312 48.92 34.0312H50.0274C50.9501 34.0312 51.75 33.293 51.75 32.3086V22.588C51.75 21.2959 50.7042 20.25 49.412 20.25Z" fill="white"/>
</svg>
