<svg width="72" height="72" viewBox="0 0 72 72" fill="none" xmlns="http://www.w3.org/2000/svg">
<circle cx="36" cy="36" r="36" fill="#D55827"/>
<path d="M35.1621 22.7637C26.8418 22.7637 20.1621 29.502 20.1621 37.7637V40.5762C20.1621 41.2207 20.5723 41.9824 21.1582 42.2754L22.0371 42.6855C22.1543 46.2012 25.0254 49.0137 28.5996 49.0137H30.0059C30.7676 49.0137 31.4121 48.4277 31.4121 47.6074V37.2949C31.4121 36.5332 30.7676 35.8887 30.0059 35.8887H28.5996C26.7246 35.8887 25.084 36.6504 23.9121 37.8809V37.7637C23.9121 31.6113 28.9512 26.5137 35.1621 26.5137C41.3145 26.5137 46.4121 31.6113 46.4121 37.7637V37.8809C45.1816 36.6504 43.541 35.8887 41.7246 35.8887H40.3184C39.498 35.8887 38.9121 36.5332 38.9121 37.2949V47.6074C38.9121 48.4277 39.498 49.0137 40.3184 49.0137H41.7246C45.2402 49.0137 48.1113 46.2012 48.2285 42.6855L49.1074 42.2754C49.6934 41.9824 50.1621 41.2207 50.1621 40.5762V37.7637C50.1621 29.502 43.4238 22.7637 35.1621 22.7637Z" fill="white"/>
</svg>
