<svg width="22" height="26" viewBox="0 0 22 26" fill="none" xmlns="http://www.w3.org/2000/svg">
<path d="M9.375 5.34961C9.375 5.05664 9.08203 4.76367 8.78906 4.76367H6.83594C6.49414 4.76367 6.25 5.05664 6.25 5.34961V7.30273C6.25 7.64453 6.49414 7.88867 6.83594 7.88867H8.78906C9.08203 7.88867 9.375 7.64453 9.375 7.30273V5.34961ZM15.0391 4.76367H13.0859C12.7441 4.76367 12.5 5.05664 12.5 5.34961V7.30273C12.5 7.64453 12.7441 7.88867 13.0859 7.88867H15.0391C15.332 7.88867 15.625 7.64453 15.625 7.30273V5.34961C15.625 5.05664 15.332 4.76367 15.0391 4.76367ZM8.78906 9.45117H6.83594C6.49414 9.45117 6.25 9.74414 6.25 10.0371V11.9902C6.25 12.332 6.49414 12.5762 6.83594 12.5762H8.78906C9.08203 12.5762 9.375 12.332 9.375 11.9902V10.0371C9.375 9.74414 9.08203 9.45117 8.78906 9.45117ZM15.0391 9.45117H13.0859C12.7441 9.45117 12.5 9.74414 12.5 10.0371V11.9902C12.5 12.332 12.7441 12.5762 13.0859 12.5762H15.0391C15.332 12.5762 15.625 12.332 15.625 11.9902V10.0371C15.625 9.74414 15.332 9.45117 15.0391 9.45117ZM8.78906 14.1387H6.83594C6.49414 14.1387 6.25 14.4316 6.25 14.7246V16.6777C6.25 17.0195 6.49414 17.2637 6.83594 17.2637H8.78906C9.08203 17.2637 9.375 17.0195 9.375 16.6777V14.7246C9.375 14.4316 9.08203 14.1387 8.78906 14.1387ZM15.0391 14.1387H13.0859C12.7441 14.1387 12.5 14.4316 12.5 14.7246V16.6777C12.5 17.0195 12.7441 17.2637 13.0859 17.2637H15.0391C15.332 17.2637 15.625 17.0195 15.625 16.6777V14.7246C15.625 14.4316 15.332 14.1387 15.0391 14.1387ZM21.875 24.1484C21.875 23.8555 21.582 23.5625 21.2891 23.5625H20.3125V1.29688C20.3125 0.662109 19.7754 0.125 19.1406 0.125H2.73438C2.05078 0.125 1.5625 0.662109 1.5625 1.29688V23.5625H0.585938C0.244141 23.5625 0 23.8555 0 24.1484V25.125H21.875V24.1484ZM18.75 23.5625H12.5V19.4121C12.5 19.1191 12.207 18.8262 11.9141 18.8262H9.96094C9.61914 18.8262 9.375 19.1191 9.375 19.4121V23.5625H3.125V1.6875H18.75V23.5625Z" fill="#888888"/>
</svg>
