<svg width="22" height="21" viewBox="0 0 22 21" fill="none" xmlns="http://www.w3.org/2000/svg">
<path d="M15.17 10.2763L21.4244 4.43341C22.1919 3.71641 22.1919 2.5539 21.4244 1.83631L20.0344 0.537755C19.2669 -0.179252 18.0225 -0.179252 17.2544 0.537755L11 6.38066L4.74563 0.537755C3.97813 -0.179252 2.73375 -0.179252 1.96563 0.537755L0.575625 1.83631C-0.191875 2.55332 -0.191875 3.71582 0.575625 4.43341L6.83 10.2763L0.575625 16.1192C-0.191875 16.8362 -0.191875 17.9987 0.575625 18.7163L1.96563 20.0149C2.73312 20.7319 3.97813 20.7319 4.74563 20.0149L11 14.172L17.2544 20.0149C18.0219 20.7319 19.2669 20.7319 20.0344 20.0149L21.4244 18.7163C22.1919 17.9993 22.1919 16.8368 21.4244 16.1192L15.17 10.2763Z" fill="#E7825B"/>
</svg>
