<svg width="32" height="23" viewBox="0 0 32 23" fill="none" xmlns="http://www.w3.org/2000/svg">
<path d="M27.8809 10.7949C28.0273 10.3066 28.125 9.81836 28.125 9.28125C28.125 6.30273 25.6348 3.8125 22.6562 3.8125C21.8262 3.8125 21.0449 4.00781 20.3125 4.34961C18.75 2.15234 16.1621 0.6875 13.2812 0.6875C8.64258 0.6875 4.88281 4.34961 4.6875 8.93945C1.9043 9.91602 0 12.5527 0 15.5312C0 19.4375 3.125 22.5625 7.03125 22.5625H25C28.418 22.5625 31.25 19.7793 31.25 16.3125C31.25 14.0176 29.9805 11.918 27.8809 10.7949ZM25 21H7.03125C4.00391 21 1.5625 18.5586 1.5625 15.5312C1.5625 12.7969 3.61328 10.502 6.29883 10.1113C6.25 9.86719 6.25 9.57422 6.25 9.28125C6.25 5.42383 9.375 2.25 13.2812 2.25C16.2109 2.25 18.7012 4.05664 19.7754 6.64453C20.5078 5.86328 21.4844 5.375 22.6562 5.375C24.8047 5.375 26.5625 7.13281 26.5625 9.28125C26.5625 10.209 26.2207 11.0391 25.7324 11.7227C27.9785 12.0645 29.6875 14.0176 29.6875 16.3125C29.6875 18.9004 27.5879 21 25 21ZM18.75 11.2344H15.625V7.13281C15.625 6.83984 15.332 6.54688 15.0391 6.54688H14.6484C14.3066 6.54688 14.0625 6.83984 14.0625 7.13281V11.2344H10.9375C9.47266 11.2344 8.78906 13.041 9.86328 13.9688L13.7695 17.4844C14.3555 18.0215 15.2832 18.0215 15.8691 17.4844L19.7754 13.9688C20.8496 13.041 20.166 11.2344 18.75 11.2344ZM14.8438 16.3125L10.9375 12.7969H18.75L14.8438 16.3125Z" fill="#888888"/>
</svg>
