<svg width="21" height="21" viewBox="0 0 21 21" fill="none" xmlns="http://www.w3.org/2000/svg">
<path d="M17.7924 0.5H2.79239C1.38614 0.5 0.292385 1.63281 0.292385 3V14.25C0.292385 15.6562 1.38614 16.75 2.79239 16.75H6.54239V20.0312C6.54239 20.4219 6.97207 20.6562 7.28457 20.4219L12.1674 16.75H17.7924C19.1596 16.75 20.2924 15.6562 20.2924 14.25V3C20.2924 1.63281 19.1596 0.5 17.7924 0.5ZM11.5424 10.8125C11.5424 11.0078 11.3861 11.125 11.2299 11.125H5.60489C5.40957 11.125 5.29239 11.0078 5.29239 10.8125V10.1875C5.29239 10.0312 5.40957 9.875 5.60489 9.875H11.2299C11.3861 9.875 11.5424 10.0312 11.5424 10.1875V10.8125ZM15.2924 7.0625C15.2924 7.25781 15.1361 7.375 14.9799 7.375H5.60489C5.40957 7.375 5.29239 7.25781 5.29239 7.0625V6.4375C5.29239 6.28125 5.40957 6.125 5.60489 6.125H14.9799C15.1361 6.125 15.2924 6.28125 15.2924 6.4375V7.0625Z" fill="#575868"/>
</svg>
