<svg width="72" height="72" viewBox="0 0 72 72" fill="none" xmlns="http://www.w3.org/2000/svg">
<circle cx="36" cy="36" r="36" fill="#D55827"/>
<path d="M31.1621 37.7637C31.1621 39.873 32.8027 41.5137 34.9121 41.5137C36.9629 41.5137 38.6621 39.873 38.6621 37.7637C38.6621 35.7129 36.9629 34.0137 34.9121 34.0137C32.8027 34.0137 31.1621 35.7129 31.1621 37.7637ZM44.2871 37.7637C44.2871 39.873 45.9277 41.5137 48.0371 41.5137C50.0879 41.5137 51.7871 39.873 51.7871 37.7637C51.7871 35.7129 50.0879 34.0137 48.0371 34.0137C45.9277 34.0137 44.2871 35.7129 44.2871 37.7637ZM21.7871 41.5137C23.8379 41.5137 25.5371 39.873 25.5371 37.7637C25.5371 35.7129 23.8379 34.0137 21.7871 34.0137C19.6777 34.0137 18.0371 35.7129 18.0371 37.7637C18.0371 39.873 19.6777 41.5137 21.7871 41.5137ZM49.9121 43.3887H46.1621C44.0527 43.3887 42.4121 45.0879 42.4121 47.1387V49.0137C42.4121 50.0684 43.2324 50.8887 44.2871 50.8887H51.7871C52.7832 50.8887 53.6621 50.0684 53.6621 49.0137V47.1387C53.6621 45.0879 51.9629 43.3887 49.9121 43.3887ZM36.7871 43.3887H33.0371C30.9277 43.3887 29.2871 45.0879 29.2871 47.1387V49.0137C29.2871 50.0684 30.1074 50.8887 31.1621 50.8887H38.6621C39.6582 50.8887 40.5371 50.0684 40.5371 49.0137V47.1387C40.5371 45.0879 38.8379 43.3887 36.7871 43.3887ZM23.6621 43.3887H19.9121C17.8027 43.3887 16.1621 45.0879 16.1621 47.1387V49.0137C16.1621 50.0684 16.9824 50.8887 18.0371 50.8887H25.5371C26.5332 50.8887 27.4121 50.0684 27.4121 49.0137V47.1387C27.4121 45.0879 25.7129 43.3887 23.6621 43.3887ZM21.7871 24.6387H48.0371V32.1387C49.4434 32.1387 50.7324 32.7246 51.7871 33.6035V23.8184C51.7871 22.2363 50.498 20.8887 48.9746 20.8887H20.8496C19.2676 20.8887 18.0371 22.2363 18.0371 23.8184V33.6035C19.0332 32.7246 20.3223 32.1387 21.7871 32.1387V24.6387Z" fill="#FEFEFE"/>
</svg>
