<svg width="38" height="38" viewBox="0 0 38 38" fill="none" xmlns="http://www.w3.org/2000/svg">
<g filter="url(#filter0_d)">
<circle cx="19" cy="15" r="14" fill="#575868" stroke="white" stroke-width="2"/>
<path d="M25.4258 9.77344L23.9492 8.29688C23.2383 7.58594 22.0625 7.58594 21.3516 8.29688L12.6562 16.9375L12 21.0117C11.918 21.4492 12.3008 21.832 12.7383 21.75L16.8125 21.0938L25.4531 12.3984C26.1641 11.6875 26.1641 10.5117 25.4258 9.77344ZM15.2812 16.0078L19.9297 11.3867L22.3633 13.8203L17.7422 18.4688V17.3203H16.4297V16.0078H15.2812ZM14.2422 20.3008L13.4492 19.5078L13.8047 17.5117L14.2969 16.9922H15.4453V18.3047H16.7578V19.4531L16.2383 19.9453L14.2422 20.3008ZM24.6055 11.5508L23.2656 12.8906L20.8594 10.4844L22.1992 9.14453C22.4453 8.89844 22.8555 8.89844 23.1016 9.14453L24.5781 10.6211C24.8516 10.8945 24.8516 11.3047 24.6055 11.5508Z" fill="white"/>
</g>
<defs>
<filter id="filter0_d" x="0" y="0" width="38" height="38" filterUnits="userSpaceOnUse" color-interpolation-filters="sRGB">
<feFlood flood-opacity="0" result="BackgroundImageFix"/>
<feColorMatrix in="SourceAlpha" type="matrix" values="0 0 0 0 0 0 0 0 0 0 0 0 0 0 0 0 0 0 127 0"/>
<feOffset dy="4"/>
<feGaussianBlur stdDeviation="2"/>
<feColorMatrix type="matrix" values="0 0 0 0 0 0 0 0 0 0 0 0 0 0 0 0 0 0 0.25 0"/>
<feBlend mode="normal" in2="BackgroundImageFix" result="effect1_dropShadow"/>
<feBlend mode="normal" in="SourceGraphic" in2="effect1_dropShadow" result="shape"/>
</filter>
</defs>
</svg>
