<svg xmlns="http://www.w3.org/2000/svg" width="20" height="20" fill="none" viewBox="0 0 20 20">
    <path fill="#F48020" d="M19.1.676l-.023-.023C18.62.23 18.022 0 17.397 0c-.699 0-1.37.298-1.84.814L6.65 10.559c-.08.092-.144.195-.184.31l-1.049 3.14c-.12.362-.063.763.16 1.073.224.31.585.498.97.498.166 0 .326-.034.48-.103l3.033-1.324c.11-.046.207-.12.293-.206l8.908-9.751c.928-1.015.854-2.597-.16-3.52zM7.43 13.426l.612-1.841.052-.057 1.164 1.066-.052.057-1.777.774zM17.993 3.031l-7.573 8.29-1.163-1.061 7.566-8.29c.15-.16.35-.251.574-.251.195 0 .378.074.521.2l.023.023c.315.287.338.78.052 1.09z"/>
    <path fill="#F48020" d="M17.375 7.934c-.476 0-.86.384-.86.86v7.297c0 1.203-.98 2.184-2.184 2.184H3.904c-1.204 0-2.184-.98-2.184-2.184V5.755c0-1.204.98-2.184 2.184-2.184h7.543c.476 0 .86-.384.86-.86 0-.475-.384-.86-.86-.86H3.904C1.754 1.852 0 3.6 0 5.756v10.336c0 2.155 1.754 3.903 3.904 3.903h10.421c2.155 0 3.904-1.754 3.904-3.903V8.793c.006-.475-.379-.86-.854-.86z"/>
</svg>
