<svg width="18" height="18" viewBox="0 0 18 18" fill="none" xmlns="http://www.w3.org/2000/svg">
<path d="M9 0.53125C4.18359 0.53125 0.28125 4.46875 0.28125 9.25C0.28125 14.0664 4.18359 17.9688 9 17.9688C13.7812 17.9688 17.7188 14.0664 17.7188 9.25C17.7188 4.46875 13.7812 0.53125 9 0.53125ZM9 16.2812C5.09766 16.2812 1.96875 13.1523 1.96875 9.25C1.96875 5.38281 5.09766 2.21875 9 2.21875C12.8672 2.21875 16.0312 5.38281 16.0312 9.25C16.0312 13.1523 12.8672 16.2812 9 16.2812ZM10.4766 12.625C10.4766 11.8164 9.80859 11.1484 9 11.1484C8.15625 11.1484 7.52344 11.8164 7.52344 12.625C7.52344 13.4688 8.15625 14.1016 9 14.1016C9.80859 14.1016 10.4766 13.4688 10.4766 12.625ZM7.59375 5.20703L7.83984 9.98828C7.83984 10.1992 8.05078 10.375 8.26172 10.375H9.70312C9.91406 10.375 10.125 10.1992 10.125 9.98828L10.3711 5.20703C10.3711 4.96094 10.1953 4.75 9.94922 4.75H8.01562C7.76953 4.75 7.59375 4.96094 7.59375 5.20703Z" fill="#F52A2A"/>
</svg>
