<svg width="132" height="123" viewBox="0 0 132 123" fill="none" xmlns="http://www.w3.org/2000/svg">
<g clip-path="url(#clip0)">
<g opacity="0.8">
<path opacity="0.8" d="M41.0105 102.216C41.0105 102.216 36.5448 83.5297 33.3357 78.1919C26.7453 67.0297 5.65742 47.0067 8.4562 33.7316C10.6858 23.1451 20.3388 7.46807 31.3791 6.39057L42.7829 5.2694C47.9657 4.73899 53.1743 5.97656 57.5673 8.78218C61.9604 11.5878 65.2814 15.7976 66.9938 20.7316L69.5373 28.2942L81.766 23.4431C88.6601 20.7068 96.2741 20.3962 103.364 22.5622C110.454 24.7281 116.6 29.2424 120.799 35.3676C124.075 40.1848 125.456 46.0491 124.676 51.8296C123.896 57.6101 121.01 62.8977 116.575 66.6728L112.523 70.173C90.8631 88.7497 64.8748 101.533 36.9751 107.333L15.5635 111.808" fill="#FF6161" fill-opacity="0.7"/>
</g>
<g opacity="0.8">
<g opacity="0.8">
<mask id="path-2-inside-1" fill="white">
<path d="M41.1193 103.855C41.1193 103.855 37.8175 84.4335 35.0142 78.774C29.1858 66.9949 9.59857 45.3284 13.2447 31.8521C16.079 21.1509 26.5756 5.47599 37.457 4.91624L48.6851 4.32688C53.8981 4.08512 59.0333 5.65654 63.2224 8.77544C67.4116 11.8943 70.3975 16.3693 71.6755 21.4437L73.7329 29.3518L86.0719 24.9814C93.0234 22.5421 100.607 22.6287 107.498 25.2262C114.389 27.8236 120.151 32.7668 123.777 39.1929C126.714 44.3716 127.718 50.4307 126.609 56.2863C125.501 62.1418 122.352 67.4121 117.725 71.1543L113.573 74.5509C91.3684 92.4327 64.9445 104.27 36.8546 108.918L15.4421 112.422"/>
</mask>
<path d="M41.1193 103.855C41.1193 103.855 37.8175 84.4335 35.0142 78.774C29.1858 66.9949 9.59857 45.3284 13.2447 31.8521C16.079 21.1509 26.5756 5.47599 37.457 4.91624L48.6851 4.32688C53.8981 4.08512 59.0333 5.65654 63.2224 8.77544C67.4116 11.8943 70.3975 16.3693 71.6755 21.4437L73.7329 29.3518L86.0719 24.9814C93.0234 22.5421 100.607 22.6287 107.498 25.2262C114.389 27.8236 120.151 32.7668 123.777 39.1929C126.714 44.3716 127.718 50.4307 126.609 56.2863C125.501 62.1418 122.352 67.4121 117.725 71.1543L113.573 74.5509C91.3684 92.4327 64.9445 104.27 36.8546 108.918L15.4421 112.422" fill="#FF6161" fill-opacity="0.7"/>
<path d="M35.0142 78.774L33.2216 79.661L33.222 79.6617L35.0142 78.774ZM13.2447 31.8521L15.1753 32.3744L15.178 32.3641L13.2447 31.8521ZM37.457 4.91624L37.5598 6.9136L37.5619 6.91349L37.457 4.91624ZM48.6851 4.32688L48.5924 2.32899L48.5802 2.32963L48.6851 4.32688ZM71.6755 21.4437L69.736 21.9322L69.7379 21.9397L69.7399 21.9473L71.6755 21.4437ZM73.7329 29.3518L71.7973 29.8553L72.3461 31.9647L74.4006 31.237L73.7329 29.3518ZM86.0719 24.9814L85.4097 23.0942L85.4042 23.0961L86.0719 24.9814ZM123.777 39.1929L122.035 40.1757L122.037 40.1795L123.777 39.1929ZM117.725 71.1543L116.468 69.5993L116.459 69.6062L117.725 71.1543ZM113.573 74.5509L114.827 76.1086L114.833 76.1038L114.839 76.0989L113.573 74.5509ZM36.8546 108.918L37.1776 110.892L37.1812 110.892L36.8546 108.918ZM41.1193 103.855C43.091 103.52 43.0909 103.52 43.0909 103.52C43.0909 103.52 43.0908 103.519 43.0908 103.519C43.0906 103.518 43.0905 103.517 43.0903 103.516C43.0898 103.513 43.0892 103.51 43.0883 103.505C43.0866 103.495 43.0842 103.48 43.0809 103.461C43.0744 103.423 43.0648 103.368 43.0522 103.295C43.027 103.149 42.9897 102.935 42.9414 102.662C42.8448 102.115 42.704 101.329 42.5262 100.368C42.1708 98.448 41.6672 95.8261 41.0747 93.0234C40.483 90.224 39.799 87.2267 39.0821 84.5611C38.3764 81.9372 37.6026 79.4938 36.8064 77.8863L33.222 79.6617C33.8274 80.8839 34.5176 82.9906 35.2194 85.6C35.91 88.1678 36.5771 91.0871 37.1612 93.8506C37.7447 96.6109 38.2417 99.1981 38.593 101.096C38.7685 102.045 38.9075 102.82 39.0024 103.358C39.0499 103.626 39.0863 103.836 39.1108 103.977C39.1231 104.048 39.1323 104.102 39.1385 104.138C39.1416 104.156 39.1439 104.169 39.1454 104.178C39.1462 104.182 39.1467 104.186 39.1471 104.188C39.1473 104.189 39.1474 104.19 39.1475 104.19C39.1475 104.19 39.1475 104.19 39.1475 104.191C39.1476 104.191 39.1476 104.191 41.1193 103.855ZM36.8068 77.887C35.2827 74.8069 32.8908 71.137 30.3052 67.2588C27.6906 63.3371 24.8441 59.1538 22.2892 54.9168C19.7326 50.6766 17.5268 46.4764 16.1795 42.5616C14.8244 38.6242 14.4134 35.1905 15.1753 32.3744L11.3141 31.3297C10.253 35.2518 10.9231 39.58 12.3972 43.8634C13.8792 48.1693 16.2508 52.6488 18.8638 56.9822C21.4786 61.3187 24.3937 65.6029 26.9771 69.4777C29.5894 73.396 31.8315 76.8515 33.2216 79.661L36.8068 77.887ZM15.178 32.3641C16.5165 27.3106 19.7094 20.9689 23.8838 15.8442C28.1188 10.6451 32.9882 7.14876 37.5598 6.9136L37.3543 2.91888C31.0444 3.24346 25.2247 7.86444 20.7825 13.318C16.2796 18.846 12.8072 25.6923 11.3113 31.34L15.178 32.3641ZM37.5619 6.91349L48.7899 6.32413L48.5802 2.32963L37.3522 2.91899L37.5619 6.91349ZM48.7777 6.32473C53.5287 6.1044 58.2093 7.53647 62.0281 10.3796L64.4168 7.17123C59.8573 3.77661 54.2674 2.06584 48.5924 2.32903L48.7777 6.32473ZM62.0281 10.3796C65.847 13.2229 68.5703 17.3034 69.736 21.9322L73.6149 20.9553C72.2248 15.4352 68.9761 10.5658 64.4168 7.17123L62.0281 10.3796ZM69.7399 21.9473L71.7973 29.8553L75.6684 28.8482L73.611 20.9402L69.7399 21.9473ZM74.4006 31.237L86.7397 26.8666L85.4042 23.0961L73.0651 27.4665L74.4006 31.237ZM86.7341 26.8685C93.2423 24.5849 100.341 24.6661 106.793 27.0976L108.203 23.3547C100.872 20.5914 92.8046 20.4993 85.4097 23.0942L86.7341 26.8685ZM106.793 27.0976C113.244 29.5293 118.639 34.1574 122.035 40.1757L125.519 38.21C121.663 31.3762 115.535 26.1179 108.203 23.3547L106.793 27.0976ZM122.037 40.1795C124.741 44.9459 125.665 50.5234 124.644 55.9142L128.574 56.6583C129.771 50.338 128.688 43.7974 125.517 38.2062L122.037 40.1795ZM124.644 55.9142C123.624 61.3049 120.725 66.1557 116.468 69.5993L118.983 72.7092C123.978 68.6684 127.378 62.9787 128.574 56.6583L124.644 55.9142ZM116.459 69.6062L112.307 73.0028L114.839 76.0989L118.992 72.7023L116.459 69.6062ZM112.319 72.9932C90.382 90.6592 64.2776 102.353 36.5281 106.945L37.1812 110.892C65.6114 106.187 92.3549 94.2061 114.827 76.1086L112.319 72.9932ZM36.5316 106.945L15.1191 110.449L15.7651 114.396L37.1776 110.892L36.5316 106.945Z" fill="black" mask="url(#path-2-inside-1)"/>
</g>
</g>
<ellipse rx="4.57658" ry="7.6325" transform="matrix(0.975369 0.220582 -0.219989 0.975502 67.8824 50.3769)" fill="#6F5F5D"/>
<path d="M71.8586 51.2761C71.4114 53.259 70.5291 54.9213 69.4899 56.0101C68.4427 57.1073 67.3073 57.5595 66.3134 57.3347C65.3195 57.1099 64.4883 56.213 64.0136 54.7716C63.5425 53.3413 63.4591 51.4606 63.9063 49.4777C64.3534 47.4948 65.2358 45.8325 66.275 44.7437C67.3222 43.6465 68.4576 43.1944 69.4515 43.4191C70.4454 43.6439 71.2766 44.5408 71.7513 45.9822C72.2224 47.4125 72.3058 49.2933 71.8586 51.2761Z" stroke="black" stroke-opacity="0.5"/>
<ellipse rx="4.57658" ry="7.6325" transform="matrix(0.975369 0.220582 -0.219989 0.975502 86.2379 53.9726)" fill="#6F5F5D"/>
<path d="M90.2141 54.8718C89.7669 56.8547 88.8845 58.517 87.8454 59.6058C86.7981 60.703 85.6627 61.1552 84.6688 60.9304C83.6749 60.7056 82.8438 59.8087 82.369 58.3673C81.8979 56.937 81.8146 55.0563 82.2617 53.0734C82.7089 51.0905 83.5913 49.4282 84.6305 48.3394C85.6777 47.2422 86.8131 46.7901 87.807 47.0148C88.8009 47.2396 89.632 48.1365 90.1068 49.5779C90.5779 51.0082 90.6612 52.889 90.2141 54.8718Z" stroke="black" stroke-opacity="0.5"/>
<ellipse rx="2.17932" ry="2.39879" transform="matrix(0.975369 0.220582 -0.219989 0.975502 87.096 52.2875)" fill="white"/>
<ellipse rx="2.17932" ry="2.39879" transform="matrix(0.975369 0.220582 -0.219989 0.975502 69.8987 48.1606)" fill="white"/>
</g>
<defs>
<clipPath id="clip0">
<rect width="120" height="111" fill="white" transform="translate(11.5469 0.546875) rotate(5.45424)"/>
</clipPath>
</defs>
</svg>
