<svg width="173" height="172" viewBox="0 0 173 172" fill="none" xmlns="http://www.w3.org/2000/svg">
<mask id="mask0" mask-type="alpha" maskUnits="userSpaceOnUse" x="38" y="0" width="135" height="172">
<rect x="38" width="135" height="172" rx="6" fill="white"/>
</mask>
<g mask="url(#mask0)">
<path d="M13.4709 123.812C26.7681 124.957 41.5428 126.473 53.4857 127.556C63.5319 128.438 73.6354 128.438 83.6815 127.556L128.59 123.936C129.121 123.872 129.611 123.615 129.966 123.213C130.321 122.811 130.517 122.292 130.517 121.754C130.517 121.217 130.321 120.698 129.966 120.296C129.611 119.894 129.121 119.636 128.59 119.573L94.7318 115.396C77.0925 113.229 59.251 113.323 41.6352 115.674L13.4093 119.449C12.8789 119.52 12.3927 119.784 12.043 120.191C11.6933 120.598 11.5043 121.12 11.5119 121.658C11.5195 122.196 11.7231 122.712 12.0842 123.109C12.4453 123.506 12.9387 123.756 13.4709 123.812Z" fill="#4D4D4D"/>
<path d="M-9 136.653V145.935C45.0508 152.99 120.463 151.381 153.429 144.883C154.507 144.667 153.429 135.756 153.429 135.756C152.999 133.806 146.473 131.919 144.195 130.867C141.435 129 139.114 126.55 137.393 123.688C137.194 122.992 136.759 122.387 136.163 121.98C135.567 121.573 134.847 121.389 134.13 121.46C125.85 121.46 98.8554 125.235 72.5687 125.359C42.9577 125.359 13.9008 121.955 7.25218 121.584C6.64418 121.505 6.02638 121.609 5.47797 121.885C4.92956 122.161 4.47554 122.595 4.17411 123.131C2.9903 126.957 0.506143 130.243 -2.84387 132.414C-4.3829 133.342 -9 135.322 -9 136.653Z" fill="#B59A6A" stroke="black" stroke-miterlimit="10"/>
<path d="M77.5563 57.5649C77.269 56.3496 77.155 55.0994 77.2177 53.8519C78.1411 52.3976 78.5413 51.3765 77.8641 50.9124C76.2916 50.5302 74.6802 50.333 73.0623 50.3245V45.9926H76.3559C77.2793 45.9926 78.0488 45.4357 78.0488 44.7859C78.0488 44.198 77.464 41.3204 76.6637 41.1347C72.0696 40.3457 67.3757 40.3457 62.7816 41.1347C61.9505 41.2894 61.3657 44.2289 61.3657 44.7859C61.3657 45.4666 62.1352 45.9926 63.0586 45.9926H66.4137V50.4792C65.0729 50.4449 63.7321 50.5486 62.4122 50.7886C62.1036 50.8775 61.8233 51.0458 61.5991 51.2769C61.3749 51.5079 61.2144 51.7937 61.1336 52.1061C61.0528 52.4185 61.0545 52.7467 61.1383 53.0582C61.2222 53.3698 61.3855 53.654 61.6119 53.8828C62.5661 55.2443 61.4273 57.534 61.4273 57.534L77.5563 57.5649Z" fill="#F7EDC2" stroke="black" stroke-miterlimit="10"/>
<path d="M5.46822 114.189L11.0087 114.715C51.5667 118.556 92.378 118.887 132.992 115.705C133.531 115.709 134.065 115.605 134.564 115.4C135.062 115.195 135.515 114.892 135.896 114.509C136.277 114.126 136.579 113.67 136.783 113.169C136.987 112.668 137.09 112.131 137.086 111.589V108.495C137.088 107.674 136.887 106.864 136.5 106.14C136.113 105.417 135.553 104.801 134.87 104.349C132.273 102.603 130.333 100.032 129.36 97.0468L126.959 89.7135C121.665 73.469 110.338 61.4635 93.6855 59.0501C78.2261 57.3948 62.6355 57.3948 47.176 59.0501C40.7735 59.9818 34.7164 62.551 29.5853 66.5116C24.4542 70.4722 20.4212 75.6913 17.8728 81.6686L11.7783 94.1692C10.4734 96.9495 8.7152 99.4909 6.57633 101.688L6.23774 102.028C5.54641 102.737 5.09417 103.646 4.94495 104.628L3.86763 112.301C3.83739 112.533 3.85587 112.768 3.92186 112.993C3.98785 113.217 4.09989 113.424 4.25075 113.602C4.4016 113.78 4.5879 113.924 4.79761 114.025C5.00733 114.126 5.23579 114.182 5.46822 114.189Z" fill="#F7EDC2" stroke="black" stroke-miterlimit="10"/>
<ellipse rx="4.83844" ry="8.06921" transform="matrix(0.999991 -0.00432456 0.00493239 0.999988 84.4016 82.7904)" fill="#6F5F5D"/>
<path d="M88.74 82.7716C88.7507 84.9249 88.2358 86.8523 87.421 88.226C86.6002 89.6098 85.5303 90.3548 84.439 90.3595C83.3477 90.3642 82.2705 89.6285 81.4361 88.2519C80.6077 86.8853 80.0739 84.9624 80.0632 82.8091C80.0526 80.6559 80.5675 78.7285 81.3823 77.3547C82.2031 75.971 83.273 75.226 84.3643 75.2213C85.4556 75.2165 86.5328 75.9522 87.3672 77.3288C88.1956 78.6955 88.7294 80.6184 88.74 82.7716Z" stroke="black" stroke-opacity="0.5"/>
<ellipse rx="4.83844" ry="8.06921" transform="matrix(0.999991 -0.00432456 0.00493239 0.999988 104.165 82.1322)" fill="#6F5F5D"/>
<path d="M108.504 82.1134C108.514 84.2667 107.999 86.1941 107.185 87.5678C106.364 88.9516 105.294 89.6966 104.203 89.7013C103.111 89.706 102.034 88.9703 101.2 87.5937C100.371 86.2271 99.8375 84.3042 99.8269 82.1509C99.8163 79.9977 100.331 78.0702 101.146 76.6965C101.967 75.3128 103.037 74.5678 104.128 74.5631C105.219 74.5583 106.296 75.294 107.131 76.6706C107.959 78.0373 108.493 79.9602 108.504 82.1134Z" stroke="black" stroke-opacity="0.5"/>
<ellipse rx="2.30402" ry="2.53604" transform="matrix(0.999991 -0.00432456 0.00493239 0.999988 105.311 79.8171)" fill="white"/>
<ellipse rx="2.30402" ry="2.53604" transform="matrix(0.999991 -0.00432456 0.00493239 0.999988 85.5528 81.86)" fill="white"/>
</g>
</svg>
