<svg width="21" height="21" viewBox="0 0 21 21" fill="none" xmlns="http://www.w3.org/2000/svg">
<path d="M19.9486 17.8047L16.0424 13.8984C15.8471 13.7422 15.6127 13.625 15.3783 13.625H14.7533C15.808 12.2578 16.4721 10.5391 16.4721 8.625C16.4721 4.17188 12.8002 0.5 8.34707 0.5C3.85489 0.5 0.222073 4.17188 0.222073 8.625C0.222073 13.1172 3.85489 16.75 8.34707 16.75C10.2221 16.75 11.9408 16.125 13.3471 15.0312V15.6953C13.3471 15.9297 13.4252 16.1641 13.6205 16.3594L17.4877 20.2266C17.8783 20.6172 18.4643 20.6172 18.8158 20.2266L19.9096 19.1328C20.3002 18.7812 20.3002 18.1953 19.9486 17.8047ZM8.34707 13.625C5.57364 13.625 3.34707 11.3984 3.34707 8.625C3.34707 5.89062 5.57364 3.625 8.34707 3.625C11.0814 3.625 13.3471 5.89062 13.3471 8.625C13.3471 11.3984 11.0814 13.625 8.34707 13.625Z" fill="#575868"/>
</svg>
