<svg width="72" height="72" viewBox="0 0 72 72" fill="none" xmlns="http://www.w3.org/2000/svg">
<path d="M72 36C72 16.1177 55.8823 0 36 0C16.1177 0 0 16.1177 0 36C0 55.8823 16.1177 72 36 72C55.8823 72 72 55.8823 72 36Z" fill="#D55827"/>
<path d="M49.7812 42.3983V21.7266C49.7812 20.9268 49.1045 20.25 48.3046 20.25H28.125C24.8643 20.25 22.2188 22.8955 22.2188 26.1562V45.8438C22.2188 49.1045 24.8643 51.75 28.125 51.75H48.3046C49.1045 51.75 49.7812 51.1349 49.7812 50.2733V49.289C49.7812 48.8583 49.5351 48.4277 49.2275 48.1817C48.92 47.1974 48.92 44.4902 49.2275 43.5674C49.5351 43.3213 49.7812 42.8906 49.7812 42.3983ZM30.0938 28.4942C30.0938 28.3095 30.2168 28.125 30.463 28.125H43.5058C43.6905 28.125 43.875 28.3095 43.875 28.4942V29.7245C43.875 29.9707 43.6905 30.0938 43.5058 30.0938H30.463C30.2168 30.0938 30.0938 29.9707 30.0938 29.7245V28.4942ZM30.0938 32.4317C30.0938 32.247 30.2168 32.0625 30.463 32.0625H43.5058C43.6905 32.0625 43.875 32.247 43.875 32.4317V33.662C43.875 33.9082 43.6905 34.0312 43.5058 34.0312H30.463C30.2168 34.0312 30.0938 33.9082 30.0938 33.662V32.4317ZM45.6592 47.8125H28.125C27.0176 47.8125 26.1562 46.9512 26.1562 45.8438C26.1562 44.7979 27.0176 43.875 28.125 43.875H45.6592C45.5362 44.9824 45.5362 46.7667 45.6592 47.8125Z" fill="white"/>
</svg>
