<svg width="171" height="168" viewBox="0 0 171 168" fill="none" xmlns="http://www.w3.org/2000/svg">
<rect opacity="0.1" x="0.668945" y="40.2969" width="112.15" height="112.15" rx="56.0748" transform="rotate(-20.8849 0.668945 40.2969)" fill="#D55827"/>
<path d="M128.354 77.4419L113.369 21.9289C113.043 20.7221 111.51 19.8411 110.304 20.1668L57.2041 34.5005C50.4159 36.3329 46.602 43.1888 48.3937 49.8262L62.7274 102.926C64.5598 109.714 71.2648 113.568 78.0531 111.736L131.152 97.4023C132.359 97.0766 133.281 95.6948 132.915 94.3372L132.263 91.9236C131.978 90.8676 130.788 90.056 129.691 90.1902C128.408 88.4327 126.819 82.5496 127.044 80.3849C128.06 79.949 128.68 78.6487 128.354 77.4419ZM123.466 91.7089L76.0985 104.495C73.3832 105.228 70.7012 103.686 69.9682 100.971C69.276 98.4065 70.7771 95.5737 73.4924 94.8407L120.859 82.0544C121.14 84.8919 122.321 89.2666 123.466 91.7089ZM119.81 74.5693L71.5378 87.5999C69.7276 88.0885 68.1904 88.989 66.9956 89.9589L55.6346 47.8716C54.9423 45.3071 56.4434 42.4743 59.1587 41.7413L107.431 28.7107L119.81 74.5693ZM92.9669 68.0587L99.198 74.9543L100.962 65.9005L108.008 59.6286L98.8038 57.9054L92.6827 50.8182L90.8087 60.0636L83.8723 66.1439L92.9669 68.0587ZM77.4163 61.413L78.625 55.0985L83.5836 50.685L77.1183 49.517L72.8556 44.5177L71.5368 51.0237L66.6883 55.2457L73.0435 56.6052L77.4163 61.413Z" fill="#D55827"/>
</svg>
