<svg width="26" height="26" viewBox="0 0 26 26" fill="none" xmlns="http://www.w3.org/2000/svg">
<path d="M24.8359 23.0254L18.9277 17.1172C18.7812 17.0195 18.6348 16.9219 18.4883 16.9219H17.8535C19.3672 15.1641 20.3438 12.8203 20.3438 10.2812C20.3438 4.71484 15.7539 0.125 10.1875 0.125C4.57227 0.125 0.03125 4.71484 0.03125 10.2812C0.03125 15.8965 4.57227 20.4375 10.1875 20.4375C12.7266 20.4375 15.0215 19.5098 16.8281 17.9961V18.6309C16.8281 18.7773 16.877 18.9238 16.9746 19.0703L22.8828 24.9785C23.127 25.2227 23.5176 25.2227 23.7129 24.9785L24.8359 23.8555C25.0801 23.6602 25.0801 23.2695 24.8359 23.0254ZM10.1875 18.0938C5.8418 18.0938 2.375 14.627 2.375 10.2812C2.375 5.98438 5.8418 2.46875 10.1875 2.46875C14.4844 2.46875 18 5.98438 18 10.2812C18 14.627 14.4844 18.0938 10.1875 18.0938Z" fill="#575868"/>
</svg>
