<svg width="138" height="97" viewBox="0 0 138 97" fill="none" xmlns="http://www.w3.org/2000/svg">
<path d="M135.781 90H130.625V7.5C130.625 3.84766 127.402 0.625 123.75 0.625H13.75C9.88281 0.625 6.875 3.84766 6.875 7.5V90H1.71875C0.644531 90 0 90.8594 0 91.7188V95.1562C0 96.2305 0.644531 96.875 1.71875 96.875H135.781C136.641 96.875 137.5 96.2305 137.5 95.1562V91.7188C137.5 90.8594 136.641 90 135.781 90ZM61.875 90V76.25H103.125V90H61.875ZM110 90V76.25C110 72.5977 106.777 69.375 103.125 69.375H61.875C58.0078 69.375 55 72.5977 55 76.25V90H13.75V7.5H123.75V90H110Z" fill="#E7825B" fill-opacity="0.2"/>
</svg>
