<svg width="151" height="121" viewBox="0 0 151 121" fill="none" xmlns="http://www.w3.org/2000/svg">
<path d="M150.531 49.2188L148.656 45.9375C148.188 45 147.016 44.7656 146.312 45.2344L121 60V56.25C121 50.1562 115.844 45 109.75 45H76V59.7656C76 63.5156 73.4219 66.7969 69.6719 67.5C64.9844 68.2031 61 64.6875 61 60V37.9688C61 34.6875 62.6406 31.6406 65.2188 30L73.1875 25.0781C75.7656 23.4375 78.8125 22.5 82.0938 22.5H106.234L134.125 6.79688C134.828 6.32812 135.297 5.15625 134.828 4.21875L132.953 0.9375C132.25 0.234375 131.078 -0.234375 130.375 0.234375L104.359 15H82.0938C77.4062 15 72.9531 16.4062 69.2031 18.75L61.2344 23.6719C57.25 26.25 54.6719 30.4688 53.7344 35.1562L39.2031 43.8281C34.0469 46.875 31 52.2656 31 58.3594V67.2656L1.9375 83.9062C1 84.375 0.53125 85.5469 1.23438 86.25L3.10938 89.5312C3.57812 90.4688 4.75 90.9375 5.45312 90.2344L38.5 71.7188V58.3594C38.5 55.0781 40.1406 51.7969 42.9531 50.1562L53.5 44.0625V59.5312C53.5 67.2656 59.125 74.2969 66.8594 75C75.7656 75.9375 83.5 68.9062 83.5 60V52.5H109.75C111.625 52.5 113.5 54.375 113.5 56.25V63.75C113.5 65.8594 111.625 67.5 109.75 67.5H104.125V75.9375C104.125 80.625 100.375 84.375 95.6875 84.375H91.9375V88.125C91.9375 93.2812 87.7188 97.5 82.3281 97.5H56.7812L29.5938 113.438C28.8906 113.906 28.4219 115.078 29.125 116.016L31 119.062C31.4688 120 32.6406 120.469 33.3438 119.766L58.8906 105H82.3281C90.5312 105 97.3281 99.375 98.9688 91.6406C106.234 90 111.625 83.6719 111.625 75.9375V75C114.672 74.2969 117.25 72.4219 118.891 69.8438L150.062 51.7969C150.766 51.3281 151.234 50.1562 150.531 49.2188Z" fill="#E7825B" fill-opacity="0.15"/>
</svg>
