<svg width="31" height="36" viewBox="0 0 31 36" fill="none" xmlns="http://www.w3.org/2000/svg">
<path d="M8.75 10.7656C8.75 11.1074 8.95508 11.3125 9.29688 11.3125H23.5156C23.7891 11.3125 24.0625 11.1074 24.0625 10.7656V8.57812C24.0625 8.30469 23.7891 8.03125 23.5156 8.03125H9.29688C8.95508 8.03125 8.75 8.30469 8.75 8.57812V10.7656ZM9.29688 16.7812H23.5156C23.7891 16.7812 24.0625 16.5762 24.0625 16.2344V14.0469C24.0625 13.7734 23.7891 13.5 23.5156 13.5H9.29688C8.95508 13.5 8.75 13.7734 8.75 14.0469V16.2344C8.75 16.5762 8.95508 16.7812 9.29688 16.7812ZM29.7363 27.7188C30.2148 27.6504 30.625 27.1719 30.625 26.625V1.46875C30.625 0.921875 30.0781 0.375 29.5312 0.375H5.46875C2.39258 0.375 0 2.83594 0 5.84375V29.9062C0 32.9824 2.39258 35.375 5.46875 35.375H29.5312C30.0781 35.375 30.625 34.8965 30.625 34.2812V33.1875C30.625 32.709 30.2148 32.2305 29.7363 32.1621C29.3945 31.2734 29.3945 28.6074 29.7363 27.7188ZM26.9336 27.7188C26.7285 28.9492 26.7285 30.9316 26.9336 32.0938H5.46875C4.23828 32.0938 3.28125 31.1367 3.28125 29.9062C3.28125 28.7441 4.23828 27.7188 5.46875 27.7188H26.9336ZM27.3438 3.65625V24.4375H5.46875C4.64844 24.4375 3.89648 24.6426 3.28125 24.916V5.84375C3.28125 4.68164 4.23828 3.65625 5.46875 3.65625H27.3438Z" fill="blue"/>
</svg>
