<svg width="35" height="40" viewBox="0 0 35 40" fill="none" xmlns="http://www.w3.org/2000/svg">
<path d="M15 8.35938C15 7.89062 14.5312 7.42188 14.0625 7.42188H10.9375C10.3906 7.42188 10 7.89062 10 8.35938V11.4844C10 12.0312 10.3906 12.4219 10.9375 12.4219H14.0625C14.5312 12.4219 15 12.0312 15 11.4844V8.35938ZM24.0625 7.42188H20.9375C20.3906 7.42188 20 7.89062 20 8.35938V11.4844C20 12.0312 20.3906 12.4219 20.9375 12.4219H24.0625C24.5312 12.4219 25 12.0312 25 11.4844V8.35938C25 7.89062 24.5312 7.42188 24.0625 7.42188ZM14.0625 14.9219H10.9375C10.3906 14.9219 10 15.3906 10 15.8594V18.9844C10 19.5312 10.3906 19.9219 10.9375 19.9219H14.0625C14.5312 19.9219 15 19.5312 15 18.9844V15.8594C15 15.3906 14.5312 14.9219 14.0625 14.9219ZM24.0625 14.9219H20.9375C20.3906 14.9219 20 15.3906 20 15.8594V18.9844C20 19.5312 20.3906 19.9219 20.9375 19.9219H24.0625C24.5312 19.9219 25 19.5312 25 18.9844V15.8594C25 15.3906 24.5312 14.9219 24.0625 14.9219ZM14.0625 22.4219H10.9375C10.3906 22.4219 10 22.8906 10 23.3594V26.4844C10 27.0312 10.3906 27.4219 10.9375 27.4219H14.0625C14.5312 27.4219 15 27.0312 15 26.4844V23.3594C15 22.8906 14.5312 22.4219 14.0625 22.4219ZM24.0625 22.4219H20.9375C20.3906 22.4219 20 22.8906 20 23.3594V26.4844C20 27.0312 20.3906 27.4219 20.9375 27.4219H24.0625C24.5312 27.4219 25 27.0312 25 26.4844V23.3594C25 22.8906 24.5312 22.4219 24.0625 22.4219ZM35 38.4375C35 37.9688 34.5312 37.5 34.0625 37.5H32.5V1.875C32.5 0.859375 31.6406 0 30.625 0H4.375C3.28125 0 2.5 0.859375 2.5 1.875V37.5H0.9375C0.390625 37.5 0 37.9688 0 38.4375V40H35V38.4375ZM30 37.5H20V30.8594C20 30.3906 19.5312 29.9219 19.0625 29.9219H15.9375C15.3906 29.9219 15 30.3906 15 30.8594V37.5H5V2.5H30V37.5Z" fill="#4C4C4C"/>
</svg>
