<svg width="45" height="40" viewBox="0 0 45 40" fill="none" xmlns="http://www.w3.org/2000/svg">
<path d="M40 12.5H32.5V5C32.5 2.26562 30.2344 0 27.5 0H5C2.1875 0 0 2.26562 0 5V17.5C0 20.3125 2.1875 22.5 5 22.5H7.5V26.5625C7.5 27.1875 7.89062 27.5 8.4375 27.5C8.59375 27.5 8.75 27.5 8.98438 27.3438L15 23.9844V30C15 32.8125 17.1875 35 20 35H27.5L35.9375 39.8438C36.1719 40 36.3281 40 36.5625 40C37.0312 40 37.5 39.6875 37.5 39.0625V35H40C42.7344 35 45 32.8125 45 30V17.5C45 14.7656 42.7344 12.5 40 12.5ZM5 20C3.59375 20 2.5 18.9062 2.5 17.5V5C2.5 3.67188 3.59375 2.5 5 2.5H27.5C28.8281 2.5 30 3.67188 30 5V17.5C30 18.9062 28.8281 20 27.5 20H16.7969L16.25 20.3906L10 23.9062V20H5ZM42.5 30C42.5 31.4062 41.3281 32.5 40 32.5H35V36.4062L28.6719 32.8906L28.125 32.5H20C18.5938 32.5 17.5 31.4062 17.5 30V22.5H27.5C30.2344 22.5 32.5 20.3125 32.5 17.5V15H40C41.3281 15 42.5 16.1719 42.5 17.5V30Z" fill="#4C4C4C"/>
</svg>
