<svg width="16" height="16" viewBox="0 0 16 16" fill="none" xmlns="http://www.w3.org/2000/svg">
<path d="M8 1.25C11.6875 1.25 14.75 4.28125 14.75 8C14.75 11.75 11.7188 14.75 8 14.75C4.25 14.75 1.25 11.75 1.25 8C1.25 4.28125 4.25 1.25 8 1.25ZM8 0.25C3.71875 0.25 0.25 3.75 0.25 8C0.25 12.2812 3.71875 15.75 8 15.75C12.25 15.75 15.75 12.2812 15.75 8C15.75 3.75 12.25 0.25 8 0.25ZM7.625 4C7.40625 4 7.25 4.1875 7.25 4.40625L7.46875 9.65625C7.46875 9.84375 7.65625 10 7.84375 10H8.125C8.3125 10 8.5 9.84375 8.5 9.65625L8.71875 4.40625C8.71875 4.1875 8.5625 4 8.34375 4H7.625ZM8 10.625C7.5 10.625 7.125 11.0312 7.125 11.5C7.125 12 7.5 12.375 8 12.375C8.46875 12.375 8.875 12 8.875 11.5C8.875 11.0312 8.46875 10.625 8 10.625Z" fill="black"/>
</svg>
