<svg width="59" height="35" viewBox="0 0 59 35" fill="none" xmlns="http://www.w3.org/2000/svg">
<circle cx="29.2578" cy="15" r="15" fill="#D55827"/>
<path d="M31.1431 15.082L34.94 11.3203C35.1509 11.1094 35.1509 10.7227 34.94 10.5117L34.0611 9.63281C33.8501 9.42188 33.4634 9.42188 33.2525 9.63281L29.4907 13.4297L25.6939 9.63281C25.4829 9.42188 25.0962 9.42188 24.8853 9.63281L24.0064 10.5117C23.7954 10.7227 23.7954 11.1094 24.0064 11.3203L27.8032 15.082L24.0064 18.8789C23.7954 19.0898 23.7954 19.4766 24.0064 19.6875L24.8853 20.5664C25.0962 20.7773 25.4829 20.7773 25.6939 20.5664L29.4907 16.7695L33.2525 20.5664C33.4634 20.7773 33.8501 20.7773 34.0611 20.5664L34.94 19.6875C35.1509 19.4766 35.1509 19.0898 34.94 18.8789L31.1431 15.082Z" fill="white"/>
</svg>
