<svg width="32" height="32" viewBox="0 0 32 32" fill="none" xmlns="http://www.w3.org/2000/svg">
<rect width="32" height="32" rx="16" fill="#F4A241"/>
<path d="M25.458 12.8065L16.7336 10.1173C16.2645 9.96091 15.7329 9.96091 15.2638 10.1173L6.53941 12.8065C5.8202 13.0254 5.8202 13.9948 6.53941 14.2137L8.07166 14.6827C7.72769 15.0893 7.54007 15.6208 7.50879 16.1524C7.19609 16.3401 7.00847 16.6528 7.00847 16.9967C7.00847 17.3407 7.16482 17.6221 7.41498 17.8098L6.63322 21.4059C6.57068 21.7186 6.78958 22 7.10228 22H8.88469C9.19739 22 9.41629 21.7186 9.35375 21.4059L8.57199 17.8098C8.82215 17.6221 9.00977 17.3407 9.00977 16.9967C9.00977 16.6528 8.79088 16.3401 8.50945 16.1837C8.54072 15.7147 8.75961 15.2769 9.16612 15.0267L15.2638 16.9029C15.5453 16.9967 16.1081 17.0906 16.7336 16.9029L25.458 14.2137C26.1772 13.9948 26.1772 13.0254 25.458 12.8065ZM17.015 17.8723C16.1394 18.1225 15.3577 17.9974 14.9824 17.8723L10.4482 16.4651L10.0104 19.9987C10.0104 21.1244 12.6684 22 16.0143 22C19.329 22 22.0182 21.1244 22.0182 19.9987L21.5492 16.4651L17.015 17.8723Z" fill="white"/>
</svg>
