<svg width="32" height="32" viewBox="0 0 32 32" fill="none" xmlns="http://www.w3.org/2000/svg">
<rect width="32" height="32" rx="16" fill="#F4A241"/>
<path d="M22.125 18.8437V9.65625C22.125 9.30078 21.8242 9 21.4687 9H12.5C11.0508 9 9.875 10.1758 9.875 11.625V20.375C9.875 21.8242 11.0508 23 12.5 23H21.4687C21.8242 23 22.125 22.7266 22.125 22.3437V21.9062C22.125 21.7148 22.0156 21.5234 21.8789 21.4141C21.7422 20.9766 21.7422 19.7734 21.8789 19.3633C22.0156 19.2539 22.125 19.0625 22.125 18.8437ZM13.375 12.6641C13.375 12.582 13.4297 12.5 13.5391 12.5H19.3359C19.418 12.5 19.5 12.582 19.5 12.6641V13.2109C19.5 13.3203 19.418 13.375 19.3359 13.375H13.5391C13.4297 13.375 13.375 13.3203 13.375 13.2109V12.6641ZM13.375 14.4141C13.375 14.332 13.4297 14.25 13.5391 14.25H19.3359C19.418 14.25 19.5 14.332 19.5 14.4141V14.9609C19.5 15.0703 19.418 15.125 19.3359 15.125H13.5391C13.4297 15.125 13.375 15.0703 13.375 14.9609V14.4141ZM20.293 21.25H12.5C12.0078 21.25 11.625 20.8672 11.625 20.375C11.625 19.9102 12.0078 19.5 12.5 19.5H20.293C20.2383 19.9922 20.2383 20.7852 20.293 21.25Z" fill="white"/>
</svg>
