<svg width="15" height="16" viewBox="0 0 15 16" fill="none" xmlns="http://www.w3.org/2000/svg">
<path d="M9.31023 11.0824L9.60034 11.2554L9.86918 11.0509C10.3206 10.7073 10.8949 10.5 11.5238 10.5C13.0056 10.5 14.1667 11.641 14.1667 13C14.1667 14.359 13.0056 15.5 11.5238 15.5C10.042 15.5 8.88095 14.359 8.88095 13V12.9998C8.8809 12.819 8.90153 12.6385 8.94254 12.4617L9.02496 12.1063L8.71164 11.9193L5.35644 9.91764L5.06633 9.74456L4.79749 9.94913C4.34602 10.2927 3.77175 10.5 3.14286 10.5C1.66108 10.5 0.5 9.35904 0.5 8C0.5 6.64096 1.66108 5.5 3.14286 5.5C3.77175 5.5 4.34602 5.70733 4.79749 6.05087L5.06633 6.25544L5.35644 6.08236L8.71164 4.08067L9.02498 3.89373L8.94253 3.5383C8.90232 3.36496 8.88095 3.18498 8.88095 3C8.88095 1.64096 10.042 0.5 11.5238 0.5C13.0056 0.5 14.1667 1.64096 14.1667 3C14.1667 4.35904 13.0056 5.5 11.5238 5.5C10.8949 5.5 10.3207 5.29267 9.86919 4.94911L9.60035 4.74452L9.31023 4.91761L5.95503 6.9193L5.6418 7.10617L5.7241 7.4615C5.80627 7.81629 5.80627 8.18368 5.7241 8.53847L5.6418 8.8938L5.95503 9.08067L9.31023 11.0824Z" fill="black" stroke="black"/>
</svg>
