<svg width="89" height="87" viewBox="0 0 89 87" fill="none" xmlns="http://www.w3.org/2000/svg">
<g filter="url(#filter0_d)">
<ellipse opacity="0.6" cx="44.5" cy="39.5" rx="29.5" ry="28.5" fill="white"/>
<path d="M44.2188 28.8281L43.2812 29.7188C43.0469 29.9531 43.0469 30.3281 43.2812 30.5156L50.5469 37.7812H34.5625C34.2344 37.7812 34 38.0625 34 38.3438V39.6562C34 39.9844 34.2344 40.2188 34.5625 40.2188H50.5469L43.2812 47.5312C43.0469 47.7188 43.0469 48.0938 43.2812 48.3281L44.2188 49.2188C44.4062 49.4531 44.7812 49.4531 45.0156 49.2188L54.8125 39.4219C55.0469 39.1875 55.0469 38.8594 54.8125 38.625L45.0156 28.8281C44.7812 28.5938 44.4062 28.5938 44.2188 28.8281Z" fill="white"/>
</g>
<defs>
<filter id="filter0_d" x="0" y="0" width="89" height="87" filterUnits="userSpaceOnUse" color-interpolation-filters="sRGB">
<feFlood flood-opacity="0" result="BackgroundImageFix"/>
<feColorMatrix in="SourceAlpha" type="matrix" values="0 0 0 0 0 0 0 0 0 0 0 0 0 0 0 0 0 0 127 0"/>
<feOffset dy="4"/>
<feGaussianBlur stdDeviation="7.5"/>
<feColorMatrix type="matrix" values="0 0 0 0 0 0 0 0 0 0 0 0 0 0 0 0 0 0 0.15 0"/>
<feBlend mode="normal" in2="BackgroundImageFix" result="effect1_dropShadow"/>
<feBlend mode="normal" in="SourceGraphic" in2="effect1_dropShadow" result="shape"/>
</filter>
</defs>
</svg>
