<svg width="25" height="25" viewBox="0 0 25 25" fill="none" xmlns="http://www.w3.org/2000/svg">
<path d="M12.5 0.515625C5.81055 0.515625 0.390625 5.93555 0.390625 12.625C0.390625 19.3145 5.81055 24.7344 12.5 24.7344C19.1895 24.7344 24.6094 19.3145 24.6094 12.625C24.6094 5.93555 19.1895 0.515625 12.5 0.515625ZM23.0469 12.625C23.0469 18.4355 18.3105 23.1719 12.5 23.1719C6.68945 23.1719 1.95312 18.4844 1.95312 12.625C1.95312 6.86328 6.64062 2.07812 12.5 2.07812C18.2617 2.07812 23.0469 6.81445 23.0469 12.625ZM15.7715 16.9707C16.0156 17.166 16.4062 17.0684 16.5527 16.8242L16.9922 16.2871C17.1875 15.9941 17.0898 15.6523 16.8457 15.457L13.4277 12.9668V5.78906C13.4277 5.49609 13.1348 5.20312 12.8418 5.20312H12.1582C11.8164 5.20312 11.5723 5.49609 11.5723 5.78906V13.6016C11.5723 13.7969 11.6211 13.9434 11.7676 14.0898L15.7715 16.9707Z" fill="#60ACE6"/>
</svg>
