<svg width="145" height="145" viewBox="0 0 145 145" fill="none" xmlns="http://www.w3.org/2000/svg">
<path opacity="0.1" d="M19.9902 92.371C8.94992 63.4365 23.4561 31.0306 52.3906 19.9903V19.9903C81.3251 8.95001 113.731 23.4562 124.771 52.3907V52.3907C135.812 81.3252 121.305 113.731 92.3709 124.771V124.771C63.4365 135.812 31.0305 121.306 19.9902 92.371V92.371Z" fill="#D55827"/>
<path d="M98.6326 25.24L57.4053 43.2762C53.5402 44.9671 51.9118 49.4316 53.5401 53.1535L82.5984 119.575L103.069 91.5184L137.568 95.5271L108.51 29.1052C106.882 25.3833 102.355 23.6118 98.6326 25.24ZM125.499 86.6516L99.6248 83.6451L84.2717 104.688L60.7871 51.0064C60.5992 50.5769 60.6976 50.0222 61.2702 49.7717L100.78 32.487C101.209 32.2991 101.827 32.5407 102.014 32.9702L125.499 86.6516Z" fill="#D55827"/>
<line x1="101.32" y1="53.2147" x2="112.215" y2="76.6797" stroke="#D55827" stroke-width="5" stroke-linecap="round"/>
<circle cx="98" cy="45" r="3" fill="#D55827"/>
</svg>
