<svg width="20" height="21" viewBox="0 0 20 21" fill="none" xmlns="http://www.w3.org/2000/svg">
<path d="M19.4447 10.5C19.4447 5.1875 15.0697 0.8125 9.75723 0.8125C4.40567 0.8125 0.0697289 5.1875 0.0697289 10.5C0.0697289 15.8516 4.40567 20.1875 9.75723 20.1875C15.0697 20.1875 19.4447 15.8516 19.4447 10.5ZM9.75723 12.4531C10.7338 12.4531 11.5541 13.2734 11.5541 14.25C11.5541 15.2656 10.7338 16.0469 9.75723 16.0469C8.7416 16.0469 7.96035 15.2656 7.96035 14.25C7.96035 13.2734 8.7416 12.4531 9.75723 12.4531ZM8.03848 6.00781C7.99942 5.73438 8.23379 5.5 8.50723 5.5H10.9682C11.2416 5.5 11.476 5.73438 11.4369 6.00781L11.1635 11.3203C11.1244 11.5938 10.9291 11.75 10.6947 11.75H8.78067C8.54629 11.75 8.35098 11.5938 8.31192 11.3203L8.03848 6.00781Z" fill="#575868"/>
</svg>
