<svg width="72" height="72" viewBox="0 0 72 72" fill="none" xmlns="http://www.w3.org/2000/svg">
<circle cx="36" cy="36" r="36" fill="#D55827"/>
<path d="M53.7217 29.9111L37.374 24.8721C36.4951 24.5791 35.499 24.5791 34.6201 24.8721L18.2725 29.9111C16.9248 30.3213 16.9248 32.1377 18.2725 32.5479L21.1436 33.4268C20.499 34.1885 20.1475 35.1846 20.0889 36.1807C19.5029 36.5322 19.1514 37.1182 19.1514 37.7627C19.1514 38.4072 19.4443 38.9346 19.9131 39.2861L18.4482 46.0244C18.3311 46.6104 18.7412 47.1377 19.3271 47.1377H22.667C23.2529 47.1377 23.6631 46.6104 23.5459 46.0244L22.0811 39.2861C22.5498 38.9346 22.9014 38.4072 22.9014 37.7627C22.9014 37.1182 22.4912 36.5322 21.9639 36.2393C22.0225 35.3604 22.4326 34.54 23.1943 34.0713L34.6201 37.5869C35.1475 37.7627 36.2021 37.9385 37.374 37.5869L53.7217 32.5479C55.0693 32.1377 55.0693 30.3213 53.7217 29.9111ZM37.9014 39.4033C36.2607 39.8721 34.7959 39.6377 34.0928 39.4033L25.5967 36.7666L24.7764 43.3877C24.7764 45.4971 29.7568 47.1377 36.0264 47.1377C42.2373 47.1377 47.2764 45.4971 47.2764 43.3877L46.3975 36.7666L37.9014 39.4033Z" fill="white"/>
</svg>
