<svg width="32" height="40" viewBox="0 0 32 40" fill="none" xmlns="http://www.w3.org/2000/svg">
<g clip-path="url(#clip0)">
<path d="M14.466 9.36295C14.4798 7.79004 13.2158 6.5038 11.6429 6.49004C10.07 6.47629 8.78378 7.74023 8.77003 9.31313C8.75627 10.886 10.0202 12.1723 11.5931 12.186C13.166 12.1998 14.4523 10.9359 14.466 9.36295Z" fill="#888888"/>
<path d="M18.2401 9.28058L17.0881 10.6886C16.2881 11.6806 15.1681 12.4166 13.9201 12.7366L13.6001 12.8326C13.1201 12.9606 12.6401 13.0246 12.0961 13.0246H11.3921C10.5601 13.0246 9.6641 13.1526 8.8321 13.4086C6.9761 13.9846 5.3441 15.2006 4.2561 16.8006L3.4881 17.9206C3.0721 18.5286 3.2321 19.3286 3.8401 19.7446C4.0641 19.9046 4.3201 19.9686 4.5761 19.9686C4.9921 19.9686 5.4081 19.7766 5.6641 19.3926L6.4321 18.2726C7.0401 17.3766 7.9041 16.6406 8.8961 16.1926V21.0886L4.2241 28.9606C3.8081 29.6646 4.0321 30.5926 4.7361 31.0086C4.9601 31.1366 5.2481 31.2006 5.5041 31.2006C6.0161 31.2006 6.5281 30.9446 6.7841 30.4646L11.6481 22.2406L12.2561 23.9046C12.5761 24.8006 12.7041 25.7286 12.6721 26.6886L12.5121 29.6326C12.4801 30.4646 13.1201 31.1686 13.9201 31.2006C13.9521 31.2006 13.9841 31.2006 13.9841 31.2006C14.7841 31.2006 15.4241 30.5926 15.4881 29.7926L15.6481 26.8486C15.7121 25.5046 15.5201 24.1926 15.0721 22.9126L14.4641 21.1846V15.2646L14.5921 15.2326C16.3841 14.7846 17.9841 13.7286 19.1361 12.3206L20.2881 10.9126C20.7361 10.3366 20.6721 9.53658 20.0961 9.08858C19.5201 8.60858 18.6881 8.70458 18.2401 9.28058Z" fill="#888888"/>
<path d="M28.512 4.38437C28.96 4.00037 28.736 3.26437 28.128 3.20037L26.56 3.07237C26.304 3.04037 26.08 2.88037 25.984 2.65637L25.376 1.18437C25.1521 0.640367 24.384 0.640367 24.16 1.18437L23.552 2.65637C23.456 2.88037 23.2321 3.04037 22.9761 3.07237L21.4081 3.20037C20.8321 3.23237 20.576 3.96837 21.024 4.38437L22.208 5.40837C22.4 5.56837 22.464 5.82437 22.432 6.08037L22.08 7.61637C21.952 8.19237 22.56 8.64037 23.072 8.35237L24.4161 7.52037C24.6401 7.39237 24.896 7.39237 25.12 7.52037L26.464 8.35237C26.976 8.67237 27.584 8.19237 27.456 7.61637L27.104 6.08037C27.04 5.82437 27.136 5.56837 27.328 5.40837L28.512 4.38437Z" fill="#888888"/>
</g>
<defs>
<clipPath id="clip0">
<rect width="32" height="40" fill="white"/>
</clipPath>
</defs>
</svg>
