<svg width="72" height="72" viewBox="0 0 72 72" fill="none" xmlns="http://www.w3.org/2000/svg">
<circle cx="36" cy="36" r="36" fill="#D55827"/>
<path d="M36 22.875C27.6797 22.875 21 29.6133 21 37.875V40.6875C21 41.332 21.4102 42.0938 21.9961 42.3867L22.875 42.7969C22.9922 46.3125 25.8633 49.125 29.4375 49.125H30.8438C31.6055 49.125 32.25 48.5391 32.25 47.7188V37.4062C32.25 36.6445 31.6055 36 30.8438 36H29.4375C27.5625 36 25.9219 36.7617 24.75 37.9922V37.875C24.75 31.7227 29.7891 26.625 36 26.625C42.1523 26.625 47.25 31.7227 47.25 37.875V37.9922C46.0195 36.7617 44.3789 36 42.5625 36H41.1562C40.3359 36 39.75 36.6445 39.75 37.4062V47.7188C39.75 48.5391 40.3359 49.125 41.1562 49.125H42.5625C46.0781 49.125 48.9492 46.3125 49.0664 42.7969L49.9453 42.3867C50.5312 42.0938 51 41.332 51 40.6875V37.875C51 29.6133 44.2617 22.875 36 22.875Z" fill="white"/>
</svg>
