<svg width="24" height="19" viewBox="0 0 24 19" fill="none" xmlns="http://www.w3.org/2000/svg">
<path d="M11.8818 5.32031L4.69425 11.2578V17.625C4.69425 17.9766 4.96769 18.25 5.31925 18.25H9.69425C10.0068 18.25 10.2802 17.9766 10.2802 17.625V13.875C10.2802 13.5625 10.5927 13.25 10.9052 13.25H13.4052C13.7568 13.25 14.0302 13.5625 14.0302 13.875V17.625C14.0302 17.9766 14.3427 18.25 14.6552 18.25H19.0693C19.3818 18.25 19.6943 17.9766 19.6943 17.625V11.2188L12.4677 5.32031C12.3896 5.24219 12.2724 5.20312 12.1943 5.20312C12.0771 5.20312 11.9599 5.24219 11.8818 5.32031ZM23.2489 9.34375L20.0068 6.64844V1.25781C20.0068 0.984375 19.7724 0.789062 19.538 0.789062H17.3505C17.0771 0.789062 16.8818 0.984375 16.8818 1.25781V4.07031L13.3661 1.17969C13.0927 0.945312 12.5458 0.789062 12.1552 0.789062C11.8036 0.789062 11.2568 0.945312 10.9833 1.17969L1.1005 9.34375C0.983314 9.42188 0.905189 9.57812 0.905189 9.69531C0.905189 9.8125 0.983314 9.92969 1.02238 10.0078L2.038 11.2188C2.11613 11.2969 2.27238 11.375 2.38956 11.375C2.46769 11.375 2.62394 11.3359 2.70206 11.2578L11.8818 3.71875C11.9599 3.64062 12.0771 3.60156 12.1943 3.60156C12.2724 3.60156 12.3896 3.64062 12.4677 3.71875L21.6474 11.2578C21.7255 11.3359 21.8818 11.375 21.9599 11.375C22.0771 11.375 22.2333 11.2969 22.3114 11.2188L23.3271 10.0078C23.3661 9.92969 23.4443 9.8125 23.4443 9.69531C23.4443 9.57812 23.3661 9.42188 23.2489 9.34375Z" fill="#575868"/>
</svg>
