<svg xmlns="http://www.w3.org/2000/svg" width="60" height="60" viewBox="0 0 60 60">
    <defs>
        <filter id="Ellipse_27" width="60" height="60" x="0" y="0" filterUnits="userSpaceOnUse">
            <feOffset dy="3"/>
            <feGaussianBlur result="blur" stdDeviation="3"/>
            <feFlood flood-opacity=".4"/>
            <feComposite in2="blur" operator="in"/>
            <feComposite in="SourceGraphic"/>
        </filter>
    </defs>
    <g id="ic_detail_arrowleft" transform="translate(-43 -235)">
        <g filter="url(#Ellipse_27)" transform="translate(43 235)">
            <circle id="Ellipse_27-2" cx="21" cy="21" r="21" fill="#fff" data-name="Ellipse 27" transform="translate(9 6)"/>
        </g>
        <g id="next" transform="rotate(180 38.207 133.984)">
            <g id="Group_567" data-name="Group 567">
                <path id="Path_827" fill="#000000" d="M7.184 5.794L1.59.2a.689.689 0 0 0-.972 0L.206.613a.688.688 0 0 0 0 .972l4.7 4.7-4.7 4.7a.689.689 0 0 0 0 .973l.412.412a.689.689 0 0 0 .972 0l5.6-5.6a.694.694 0 0 0 0-.976z" data-name="Path 827"/>
            </g>
        </g>
    </g>
</svg>
