<svg width="75" height="120" viewBox="0 0 75 120" fill="none" xmlns="http://www.w3.org/2000/svg">
<path d="M37.5 82.5C49.9219 82.5 60 72.6562 60 60V22.5C60 10.0781 49.9219 0 37.5 0C24.8438 0 15 10.0781 15 22.5V60C15 72.6562 24.8438 82.5 37.5 82.5ZM22.5 22.5C22.5 14.2969 29.0625 7.5 37.5 7.5C45.7031 7.5 52.5 14.2969 52.5 22.5H39.375C38.2031 22.5 37.5 23.4375 37.5 24.375V28.125C37.5 29.2969 38.2031 30 39.375 30H52.5V37.5H39.375C38.2031 37.5 37.5 38.4375 37.5 39.375V43.125C37.5 44.2969 38.2031 45 39.375 45H52.5V52.5H39.375C38.2031 52.5 37.5 53.4375 37.5 54.375V58.125C37.5 59.2969 38.2031 60 39.375 60H52.5C52.5 68.4375 45.7031 75 37.5 75C29.0625 75 22.5 68.4375 22.5 60V22.5ZM73.125 45H69.375C68.2031 45 67.5 45.9375 67.5 46.875V60C67.5 77.3438 52.7344 91.1719 35.3906 90C19.4531 89.0625 7.5 75 7.5 59.0625V46.875C7.5 45.9375 6.5625 45 5.625 45H1.875C0.703125 45 0 45.9375 0 46.875V58.8281C0 78.2812 14.2969 95.3906 33.75 97.2656V112.5H16.875C15.7031 112.5 15 113.438 15 114.375V118.125C15 119.297 15.7031 120 16.875 120H58.125C59.0625 120 60 119.297 60 118.125V114.375C60 113.438 59.0625 112.5 58.125 112.5H41.25V97.2656C60 95.3906 75 79.4531 75 60V46.875C75 45.9375 74.0625 45 73.125 45Z" fill="#E7825B" fill-opacity="0.15"/>
</svg>
