<svg width="207" height="410" viewBox="0 0 207 410" fill="none" xmlns="http://www.w3.org/2000/svg">
<mask id="mask0" mask-type="alpha" maskUnits="userSpaceOnUse" x="0" y="0" width="207" height="410">
<rect width="207" height="410" transform="matrix(-1 0 0 1 207 0)" fill="#C4C4C4"/>
</mask>
<g mask="url(#mask0)">
<path d="M123.244 375.679L123.263 375.676L123.282 375.674L139.539 373.991L139.542 373.991C141.207 373.824 142.699 373.335 143.822 372.661C144.948 371.984 145.614 371.18 145.833 370.411L160.15 305.993L160.158 305.955L160.169 305.919C160.412 305.119 160.046 304.129 158.657 303.207C157.296 302.304 155.171 301.66 152.675 301.66H140.68C138.67 301.66 136.844 302.106 135.482 302.81C134.098 303.527 133.329 304.433 133.133 305.286C133.133 305.286 133.133 305.286 133.133 305.287L117.772 373.309C117.665 373.784 117.911 374.448 118.977 375.037C120.004 375.604 121.553 375.92 123.244 375.679Z" fill="#9D6648" stroke="black" stroke-width="2"/>
<path d="M152.78 298.26L152.923 298.117L153.174 298.511L152.78 298.26Z" fill="#A9795F"/>
<path d="M154.607 299.193C154.607 299.193 154.607 299.193 154.607 299.444C154.607 299.694 153.963 298.656 153.605 298.298C154.035 297.725 154.285 299.587 154.607 299.193Z" fill="#A9795F"/>
<path d="M154.926 299.121C155.392 299.121 155.499 299.479 155.535 299.658C155.464 299.264 154.783 299.658 154.926 299.121Z" fill="#A9795F"/>
<path d="M154.072 337.397H153.679C154.717 335.965 154.395 334.067 155.075 332.456C156.05 328.385 157.245 324.369 158.656 320.427H158.441C158.441 320.427 158.906 320.069 158.942 319.854C158.978 319.639 158.727 319.854 158.691 319.854C158.226 318.851 159.658 317.384 159.3 316.703C159.334 316.659 159.377 316.623 159.426 316.598C159.476 316.573 159.531 316.56 159.587 316.56C159.642 316.56 159.697 316.573 159.747 316.598C159.796 316.623 159.84 316.659 159.873 316.703C160.768 313.517 161.699 310.044 162.917 306.858C162.917 306.858 162.702 306.607 162.487 306.607C162.727 306.141 162.87 305.631 162.907 305.107C162.944 304.584 162.874 304.059 162.702 303.564C162.347 302.629 161.739 301.811 160.947 301.201C159.512 300.165 157.836 299.512 156.078 299.303C156.078 299.017 156.471 299.088 156.078 298.73C157.295 298.73 157.832 299.912 158.942 299.84V299.554C159.694 299.733 158.942 300.234 159.622 300.27C160.303 300.306 159.622 299.912 159.873 299.984C160.644 300.44 161.344 301.007 161.95 301.666C162.302 302.029 162.574 302.462 162.747 302.937C162.919 303.412 162.99 303.919 162.952 304.423C163.346 304.423 163.418 305.175 163.418 305.819V306.714C163.366 306.877 163.366 307.053 163.418 307.216C163.132 307.502 163.096 307.86 162.702 307.896C161.986 312.55 160.374 317.097 159.372 321.787C157.76 323.721 158.477 326.656 157.546 329.198C157.028 330.14 156.699 331.174 156.579 332.242L155.934 332.993C155.505 339.295 153.428 345.381 152.354 351.646C151.614 358.555 149.914 365.327 147.305 371.767C147.305 371.767 147.305 371.767 147.591 371.767C147.069 372.79 146.326 373.684 145.416 374.384C144.505 375.083 143.45 375.572 142.328 375.813C139.642 376.064 137.315 376.028 134.88 376.386C132.511 376.747 130.109 376.843 127.719 376.672L123.458 377.138C121.903 377.328 120.325 377.119 118.874 376.529C118.122 376.217 117.458 375.725 116.941 375.097C116.674 374.772 116.495 374.385 116.419 373.971C116.344 373.558 116.376 373.132 116.511 372.734L117.657 368.402H117.442C118.946 363.927 118.767 359.201 120.163 354.725C120.7 349.892 123.744 345.309 123.995 340.404C123.565 337.218 126.752 333.888 126.25 330.881C126.304 325.039 127.752 319.294 130.476 314.126C130.859 311.473 131.482 308.86 132.338 306.321C132.66 303.6 134.701 302.49 136.993 301.129C139.392 301.129 142.041 299.733 144.834 299.912V300.198C145.801 299.339 147.018 301.38 147.627 300.198C148.164 299.554 148.845 301.702 149.167 300.95V301.272C149.811 301.272 149.167 300.914 149.74 300.771C150.313 300.628 149.74 301.344 150.205 301.165C150.205 299.876 151.745 301.451 151.781 299.984C151.423 299.984 152.318 299.447 151.53 299.124C151.781 299.124 152.819 299.124 152.712 299.661C152.604 300.198 153.213 300.879 152.712 301.416V300.914C152.497 301.416 152.712 301.165 152.461 301.523C151.638 301.523 151.53 302.275 150.921 302.561C150.492 301.988 149.955 302.311 149.597 302.561V302.848C149.382 303.385 148.63 301.774 148.88 302.848C147.037 302.652 145.184 302.568 143.33 302.597C143.044 302.239 141.862 302.597 142.292 301.953C141.698 302.567 140.89 302.926 140.036 302.955C139.32 304.029 138.854 302.132 138.282 303.528C137.924 302.669 137.064 304.172 136.276 303.528C136.231 303.692 136.231 303.865 136.276 304.029C135.743 304.306 135.287 304.712 134.952 305.211C134.86 305.365 134.799 305.535 134.772 305.712V306.213C133.734 307.251 134.45 309.256 133.161 310.044C133.33 311.264 133.144 312.507 132.624 313.624C132.404 315.025 131.824 316.345 130.941 317.455C131.872 318.1 131.514 318.637 131.729 319.281C131.1 320.576 130.538 321.902 130.046 323.255C130.44 323.577 129.58 324.365 130.046 324.58C128.005 328.557 127.053 333.004 127.289 337.469C126.788 337.934 125.821 338.364 125.248 338.793C124.961 339.545 125.463 340.404 125.248 341.121C125.248 341.121 125.248 341.121 125.499 341.121C125.033 341.765 125.713 342.696 124.997 343.448L124.639 343.913C124.854 343.913 125.176 343.913 125.176 343.913C123.923 350.465 121.273 356.945 119.913 363.64H120.199L119.519 364.857H119.769C119.466 366.535 119.035 368.187 118.48 369.798C118.48 369.798 118.874 369.798 118.946 369.798C118.051 370.836 119.304 371.875 117.907 372.197C117.907 372.197 118.23 372.197 118.337 372.197C118.087 372.913 117.693 374.059 117.657 374.274C117.621 374.488 117.872 375.061 118.409 375.491C119.667 376.244 121.152 376.523 122.598 376.278C125.463 377.174 128.578 375.777 131.621 376.278V376.064C133.584 376.224 135.56 376.115 137.494 375.741C139.444 375.57 141.354 375.087 143.151 374.309C144.44 373.522 145.586 373.02 146.087 371.517H145.837C147.52 369.082 146.159 365.574 147.985 362.996H147.556C148.236 362.674 147.556 361.206 148.701 361.599V361.027C150.492 359.416 148.701 357.446 150.277 355.227H149.99C150.353 354.701 150.541 354.075 150.528 353.437C150.528 353.437 150.527 353.437 150.313 353.437C149.776 351.253 151.351 349.319 151.781 347.207H151.279C152.031 346.312 151.924 344.379 152.497 343.09H152.676L153.141 342.481H152.712C152.927 340.583 153.643 339.044 154.072 337.397Z" fill="#A9795F"/>
<path d="M158.473 320.137C158.473 320.137 158.437 320.353 158.473 320.137V320.137Z" fill="#A9795F"/>
<path d="M140.787 300.66C136.49 300.66 132.838 302.558 132.265 305.064L116.904 373.088C116.403 375.308 119.733 377.206 123.492 376.669" fill="#9D5132"/>
<path d="M123.707 379.356L123.671 379.464L123.528 379.105L123.707 379.356Z" fill="#A9795F"/>
<path d="M122.809 378.568C122.809 378.568 122.809 378.389 122.809 378.317C122.809 378.246 123.167 378.997 123.346 379.355C123.525 379.713 122.917 378.174 122.809 378.568Z" fill="#A9795F"/>
<path d="M122.669 378.676C122.49 378.926 122.382 378.425 122.347 378.246C122.418 378.64 122.705 378.139 122.669 378.676Z" fill="#A9795F"/>
<path d="M119.446 363.317H119.84C118.981 363.818 119.518 364.749 119.052 365.393C118.652 367.156 118.039 368.863 117.226 370.477H117.441C117.441 370.477 117.011 370.477 117.011 370.692C117.05 370.711 117.093 370.721 117.137 370.721C117.18 370.721 117.223 370.711 117.262 370.692C117.799 371.229 116.582 371.73 117.047 372.088C116.958 372.132 116.86 372.155 116.761 372.155C116.661 372.155 116.563 372.132 116.474 372.088C116.082 372.912 115.945 373.835 116.08 374.738C116.385 375.732 116.94 376.632 117.692 377.351C117.692 377.351 117.942 377.172 118.014 376.957C118.446 377.641 119.087 378.166 119.842 378.457C120.596 378.747 121.424 378.786 122.203 378.568C122.203 378.819 122.203 378.855 122.203 379.141C121.666 379.464 121.344 378.425 120.843 378.855V379.106C120.485 379.106 120.843 378.425 120.485 378.712C120.126 378.998 120.485 379.07 120.485 379.07C119.804 378.819 118.945 378.819 118.551 377.924C118.121 378.389 117.799 377.638 117.262 377.924C117.262 377.602 117.011 377.53 117.262 377.172C116.53 376.746 115.959 376.091 115.635 375.308C115.312 374.526 115.254 373.659 115.472 372.84C115.826 371.843 116.125 370.827 116.367 369.797C117.692 369.081 116.653 367.649 117.262 366.575C117.447 366.416 117.594 366.218 117.693 365.995C117.792 365.772 117.841 365.53 117.835 365.286L118.372 364.999C118.467 362.234 118.851 359.486 119.518 356.801C119.412 353.745 120.222 350.728 121.845 348.136H121.63C122.06 347.349 121.845 346.454 122.239 345.702C123.6 343.876 123.063 341.477 124.495 339.759C124.954 337.217 125.612 334.715 126.464 332.276H126.249C127.145 330.378 126.249 328.195 127.216 326.261C127.216 324.113 129.436 322.323 129.257 320.103C128.434 318.599 131.155 317.418 130.296 315.986C129.15 313.122 130.797 310.974 132.372 308.825C132.407 307.654 132.701 306.505 133.232 305.46C133.626 304.529 134.234 303.92 134.771 302.811C135.989 302.811 136.311 300.841 137.672 300.734V301.02C137.922 300.054 138.853 301.951 138.889 300.698C138.889 300.054 139.641 302.13 139.677 301.343V301.665C139.928 301.665 139.677 301.307 139.677 301.164C139.677 301.02 139.677 301.737 139.892 301.522C139.892 300.233 140.572 301.772 140.536 300.34C140.536 300.34 140.751 299.767 140.536 299.481C140.322 299.195 141.145 299.481 141.109 299.982C141.073 300.483 141.324 301.2 141.109 301.737V301.235C141.086 301.438 141.086 301.642 141.109 301.844C140.751 301.844 140.751 302.596 140.536 302.918C140.536 302.381 140.142 302.918 140.035 302.918V303.204C140.035 303.741 139.57 302.166 139.784 303.204C139.074 303.079 138.343 303.154 137.672 303.419C137.457 303.097 137.171 303.634 137.099 302.954C137.099 303.741 136.812 304.135 136.633 304.171C136.454 304.207 136.633 304.171 136.633 304.171C136.848 305.209 135.81 303.527 136.204 304.78C135.631 304.064 135.953 305.281 135.165 304.78C135.255 304.925 135.363 305.057 135.488 305.174C135.365 305.313 135.278 305.481 135.234 305.662C135.19 305.843 135.191 306.031 135.237 306.212C134.843 306.212 134.843 306.462 134.807 306.785C134.817 306.877 134.808 306.97 134.781 307.059C134.753 307.147 134.708 307.229 134.647 307.3C134.587 307.37 134.513 307.427 134.43 307.468C134.346 307.509 134.255 307.532 134.163 307.537C134.163 307.966 134.592 308.682 134.163 309.112C134.163 309.685 133.769 310.437 133.017 310.687C133.984 311.081 133.697 311.296 133.984 311.618C133.411 311.904 133.375 312.764 132.802 313.265C133.268 313.265 132.516 313.73 133.16 313.909C132.436 314.629 131.943 315.548 131.745 316.55C131.547 317.552 131.654 318.59 132.05 319.53C131.656 319.53 130.761 319.745 130.224 319.888C130.224 319.888 130.618 320.64 130.224 320.962H130.475C130.117 321.177 130.868 321.714 130.26 321.965H129.938C130.188 321.965 130.51 321.965 130.475 321.965C130.045 324.829 128.219 327.514 127.753 330.45H127.968L127.467 330.915H127.717C127.932 331.703 127.109 332.312 127.073 333.028C127.073 333.028 127.395 333.028 127.503 333.028C126.787 333.422 128.111 334.03 126.787 334.03C126.939 334.071 127.1 334.071 127.252 334.03C126.545 335.37 126.141 336.849 126.07 338.362C124.638 339.329 125.354 340.904 124.173 341.943H124.423C123.242 343.411 123.707 345.308 123.17 346.955C123.021 347.592 122.818 348.215 122.561 348.817H122.812C121.487 349.748 123.242 351.538 121.774 352.397H122.167C121.523 352.397 122.167 353.185 121.201 352.898L121.487 353.185C119.912 353.722 121.738 354.832 120.628 355.691H120.914C120.664 355.941 120.413 356.228 120.592 356.478H120.807C121.559 357.552 120.27 358.269 120.126 359.164H120.592C119.947 359.486 120.27 360.417 119.912 360.918H120.126L119.768 361.133H120.198C119.987 361.874 119.736 362.603 119.446 363.317Z" fill="#A9795F"/>
<path d="M285.837 161.249C266.644 162.609 245.339 164.364 227.937 165.617C213.417 166.637 198.844 166.637 184.324 165.617L119.872 161.356C116.076 161.106 115.969 156.63 119.872 156.272L168.677 151.439C194.175 148.933 219.863 149.041 245.339 151.761L285.98 156.129C289.74 156.559 289.632 160.998 285.837 161.249Z" fill="#4D4D4D"/>
<path d="M205.238 68.0168L202.302 76.2872C199.031 85.6573 196.797 95.3582 195.642 105.216L192.849 128.415C192.143 134.2 192.227 140.054 193.1 145.815L193.744 150.04C194.21 152.928 194.892 155.776 195.785 158.561C197.898 164.934 201.3 169.302 205.203 170.519L206.85 171.056C208.374 171.463 209.986 171.4 211.475 170.877C212.963 170.353 214.259 169.392 215.193 168.12L216.625 166.545L208.998 161.747C206.742 155.16 204.2 151.007 203.699 144.741L202.446 134.43C201.552 124.853 202.12 115.195 204.128 105.788L205.811 90.2143C206.313 85.56 207.029 80.9773 207.96 76.502L210.824 62.8613H210.216C208.318 62.7897 206.384 64.723 205.238 68.0168Z" fill="#6CAA4B"/>
<path d="M202.986 67.2291L202.878 67.0501L203.344 66.8711L202.986 67.2291Z" fill="#7FB562"/>
<path d="M204.593 65.5469C204.593 65.5469 204.593 65.5469 204.593 65.7259C204.078 65.9476 203.576 66.1987 203.089 66.4777C202.803 65.6543 204.808 66.1555 204.593 65.5469Z" fill="#7FB562"/>
<path d="M204.702 65.1536C204.702 64.5808 205.275 64.6524 205.49 64.6524C205.061 64.5808 205.096 65.5116 204.702 65.1536Z" fill="#7FB562"/>
<path d="M206.81 95.1566C206.81 95.1566 206.846 95.1206 206.81 95.1566V95.1566Z" fill="#7FB562"/>
<path d="M204.057 104.965H203.628C204.14 103.033 204.452 101.053 204.559 99.0573C205.047 94.16 205.933 89.3107 207.208 84.5573C207.208 84.5573 207.208 84.5573 206.994 84.7363C206.779 84.9153 207.459 84.2709 207.459 84.0203C207.459 83.7697 207.244 84.0203 207.208 84.0203C206.707 82.8746 208.104 81.0129 207.71 80.44C207.726 80.3826 207.756 80.3302 207.798 80.2874C207.839 80.2447 207.891 80.213 207.948 80.1952C208.005 80.1774 208.065 80.1741 208.123 80.1856C208.182 80.1971 208.237 80.223 208.283 80.261C209.023 76.3006 210.052 72.3997 211.362 68.5894C211.362 68.3746 211.147 68.303 210.897 68.303C211.779 66.6811 212.395 64.9285 212.723 63.1117L213.117 61.1067H211.111H210.467C210.146 61.0713 209.821 61.0713 209.5 61.1067C208.889 61.2421 208.308 61.4846 207.781 61.8228C206.923 62.4256 206.193 63.1922 205.633 64.0783C205.311 64.0783 205.633 63.5771 205.167 63.7561C205.776 62.3598 207.316 62.2166 208.426 61.2141H208.139C209.214 60.6413 208.569 61.7154 209.643 61.2141C210.109 60.8919 209.464 60.8561 209.643 60.8203H211.076H213.618L213.081 63.2549C212.928 64.5199 212.514 65.7393 211.863 66.8351C212.365 67.3005 211.541 68.482 211.863 69.1623C211.541 69.5203 211.541 69.9141 211.111 69.9857C210.718 72.7067 210.001 75.4277 209.464 78.1487C208.927 80.8696 208.39 83.5906 207.96 86.3832C206.385 88.782 207.316 92.0758 206.636 95.1906C206.206 96.3366 205.976 97.5474 205.955 98.7709L205.346 99.7375C205.812 107.184 203.234 114.524 203.377 121.828C203.421 125.812 203.672 129.791 204.129 133.75C204.719 137.707 204.911 141.713 204.702 145.708C204.702 145.708 204.702 145.708 204.702 145.529C204.998 147.772 205.563 149.972 206.385 152.081C207.036 154.853 207.935 157.561 209.07 160.172C209.428 160.924 209.321 161.389 209.858 161.568L211.541 162.714C212.716 163.515 213.84 164.388 214.907 165.327L216.124 166.079L217.127 166.402L216.876 166.688L214.871 168.836C213.666 170.249 212.007 171.2 210.179 171.526C208.35 171.853 206.465 171.535 204.845 170.626C203.188 169.958 201.723 168.888 200.584 167.511C197.028 163.225 194.636 158.096 193.638 152.618C192.098 147.032 192.886 140.874 192.349 135.218C191.239 131.637 194.211 127.162 193.459 123.761C193.027 116.94 194.002 110.104 196.323 103.676C196.538 97.3029 199.259 91.4672 199.617 85.3091C201.121 82.7672 200.298 79.1869 201.623 76.1795L201.837 76.3944C201.408 74.9981 203.807 74.3536 202.876 73.2437C202.482 72.4561 204.774 72.3845 204.165 71.8117H204.487C204.845 71.1314 204.201 71.5968 204.272 71.024C204.344 70.4512 204.845 71.024 204.809 70.666C203.628 70.1289 205.669 69.0549 204.344 68.5178C204.344 68.8759 204.022 67.7302 203.413 68.5178C203.413 68.2314 203.843 67.0857 204.38 67.3722C204.917 67.6586 205.74 67.3722 205.955 68.124H205.49C205.848 68.5178 205.49 68.4104 205.955 68.5894C205.669 69.5561 206.277 69.9141 206.313 70.666C205.597 70.9524 205.705 71.7042 205.633 72.0623L205.848 72.3129C206.277 72.7067 204.451 72.9931 205.454 73.0289C204.525 75.0002 203.736 77.034 203.091 79.1153C202.661 79.2943 202.589 80.7264 202.088 80.0462C202.462 81.0015 202.462 82.0625 202.088 83.0178C202.733 84.4499 200.763 84.1277 201.694 85.524C200.799 85.524 201.444 87.5289 200.298 87.8869C200.351 87.961 200.421 88.022 200.502 88.0654C200.582 88.1088 200.672 88.1334 200.763 88.1375C200.298 90.0709 200.154 92.2906 199.868 93.9375C198.794 95.2264 199.546 97.5178 198.293 98.4844C198.486 99.8687 198.351 101.279 197.899 102.602C197.759 104.228 197.296 105.81 196.538 107.256C197.505 107.865 197.183 108.545 197.433 109.297C196.824 110.335 196.717 112.555 196.073 114.13C196.538 114.452 195.714 115.491 196.395 115.67C194.64 120.575 194.076 125.827 194.748 130.993C194.318 131.566 193.423 132.246 192.921 132.855C192.42 133.463 192.921 132.855 192.921 132.855C192.921 133.786 193.387 134.645 193.244 135.504C193.244 135.504 193.244 135.504 193.459 135.504C193.136 136.363 193.996 137.223 193.459 138.225L193.244 138.834C193.459 138.834 193.817 138.834 193.709 138.44C193.709 142.271 194.282 146.03 194.676 150.111C194.956 154.022 195.888 157.858 197.433 161.461V161.103C197.433 161.64 197.612 162.105 197.72 162.642C197.736 162.603 197.745 162.56 197.745 162.517C197.745 162.474 197.736 162.431 197.72 162.392C198.625 164.034 199.642 165.613 200.763 167.118C200.763 167.118 200.763 166.688 201.085 166.795C201.587 168.192 203.091 167.476 202.876 168.872C202.944 168.832 203.001 168.775 203.039 168.705C203.077 168.636 203.095 168.557 203.091 168.478C203.789 169.034 204.576 169.47 205.418 169.767C206.214 170.148 207.079 170.367 207.96 170.411C209.017 170.505 210.081 170.335 211.056 169.916C212.031 169.498 212.887 168.844 213.546 168.013C214.152 167.86 214.708 167.551 215.158 167.118L215.516 166.76C215.516 166.76 215.516 166.76 215.301 166.509L214.513 165.972L213.654 165.435L212.544 164.683C211.808 164.18 211.124 163.604 210.503 162.965C210.058 162.558 209.591 162.176 209.106 161.819C208.82 161.282 208.748 160.637 208.533 160.136C208.175 159.026 207.71 157.952 207.244 156.878C206.178 154.773 205.291 152.581 204.595 150.326C204.121 148.635 203.856 146.891 203.807 145.135H203.52C204.236 141.77 201.694 138.404 202.482 134.86L202.124 135.146C202.625 134.573 201.694 133.105 202.768 133.213L202.41 132.64C203.628 130.241 201.479 128.415 202.41 125.479H202.16C202.351 124.752 202.351 123.987 202.16 123.26C202.16 123.26 202.16 123.26 202.16 123.51C201.193 121.076 202.482 118.462 202.733 115.992L202.231 116.207C202.54 114.708 202.732 113.188 202.804 111.66H202.589L203.019 110.908H202.589C202.804 108.796 203.771 106.97 204.057 104.965Z" fill="#7FB562"/>
<path d="M214.264 0.207764L203.844 60.2126C203.092 64.4731 202.519 68.8768 202.089 73.3163L199.798 97.268C198.76 108.307 198.76 119.418 199.798 130.457L200.084 133.428C200.827 142.246 202.458 150.967 204.954 159.457L205.849 162.428C206.888 166.009 208.714 168.014 210.79 168.121L217.952 166.331C216.614 165.614 215.487 164.559 214.683 163.271C213.879 161.984 213.426 160.508 213.369 158.991C213.583 154.23 210.755 119.609 212.08 90.9668L214.013 49.5077C214.832 29.9662 217.07 10.5101 220.709 -8.70703H219.169C217.767 -7.65306 216.605 -6.31332 215.759 -4.77648C214.913 -3.23965 214.404 -1.54075 214.264 0.207764Z" fill="#C7E080"/>
<path d="M191.882 172.631C194.688 166.68 196.19 160.198 196.287 153.62C196.287 148.858 196.645 143.81 197.003 141.232C198.793 128.952 196.716 109.01 196.108 101.169C195.953 99.2776 195.666 97.3993 195.248 95.5481L183.504 46.6779C182.322 41.6656 180.174 38.6582 177.56 38.3359H176.772L177.739 83.7692C178.089 88.0013 178.687 92.2093 179.529 96.3716L186.153 130.097C187.205 136.18 187.827 142.33 188.015 148.5L188.731 170.662C188.731 172.631 189.376 173.991 190.235 174.242C190.772 174.099 191.381 173.562 191.882 172.631Z" fill="#6CAA4B"/>
<path d="M193.993 173.742L194.029 173.993L193.421 174.208L193.993 173.742Z" fill="#7FB562"/>
<path d="M190.128 175.604C190.307 175.604 190.128 175.604 190.415 175.353C191.403 175.505 192.413 175.315 193.279 174.816C193.279 175.389 192.563 175.604 191.919 175.604C191.323 175.55 190.724 175.55 190.128 175.604Z" fill="#7FB562"/>
<path d="M189.052 175.352C187.763 174.779 188.229 174.099 188.229 173.92C188.229 173.741 188.229 174.421 188.623 174.708C189.017 174.994 189.303 175.209 189.052 175.352Z" fill="#7FB562"/>
<path d="M184.078 117.639L184.436 117.46C184.589 119.791 184.948 122.103 185.51 124.37C186.716 129.947 187.328 135.635 187.336 141.341C187.336 141.341 187.336 141.341 187.336 141.126C187.336 140.911 186.978 141.735 187.05 142.057C187.122 142.379 187.05 142.057 187.265 141.842C188.017 143.023 187.265 145.422 187.623 146.246C187.623 146.568 187.301 146.747 187.086 146.568C187.086 151.115 187.086 156.02 186.728 160.889C186.795 160.954 186.885 160.991 186.978 160.991C187.072 160.991 187.162 160.954 187.229 160.889C186.793 162.899 186.624 164.957 186.728 167.011C186.728 168.013 186.728 169.052 186.728 170.09C186.742 171.318 186.985 172.532 187.444 173.67C187.444 173.992 186.943 173.241 186.907 173.885C185.868 172.095 186.907 170.699 186.441 169.625H186.191C185.976 168.765 186.871 169.446 186.477 168.55C186.262 168.192 186.155 168.55 186.119 168.55C185.95 166.717 186.071 164.869 186.477 163.073C185.868 162.643 186.477 161.104 185.797 160.423C186.012 159.958 185.797 159.457 186.334 159.278C185.761 152.833 186.334 146.246 185.653 139.765C186.513 136.615 184.723 133.142 184.436 129.562C184.446 128.098 184.253 126.64 183.863 125.23L184.078 123.977C181.464 115.742 180.497 107.006 178.385 98.5568C177.2 93.8458 176.326 89.0618 175.771 84.2359C175.542 79.5391 175.721 74.8312 176.308 70.1655C176.308 70.1655 176.308 70.1655 176.093 70.1655C176.093 67.3729 175.771 64.8668 176.093 62.2532C176.881 55.7014 175.628 48.7557 176.487 42.4187C176.487 41.3446 176.487 40.1273 176.487 39.1607V37.8718C177.009 37.7875 177.541 37.7875 178.062 37.8718C179.108 38.2627 180.054 38.8792 180.834 39.6775C181.614 40.4758 182.208 41.4362 182.574 42.4903C183.342 44.4315 183.906 46.4472 184.257 48.5051C184.687 50.51 185.116 52.515 185.51 54.5199H185.725C186.799 60.8927 189.306 66.6927 190.559 73.0297C192.6 79.3667 192.457 86.5988 194.713 92.9358C196.861 96.7667 195.071 102.531 196.467 106.254C198.452 113.98 198.709 122.048 197.219 129.884C197.432 133.539 197.191 137.207 196.503 140.804C195.99 144.361 195.893 147.965 196.217 151.544C195.25 154.838 196.861 158.705 195.823 162.285L195.572 162.07C196.145 163.61 193.746 164.72 194.748 165.865C195.178 166.76 192.851 167.047 193.424 167.655H193.101C192.743 168.443 193.388 167.87 193.101 168.55C192.815 169.231 192.528 168.55 192.528 168.98C193.71 169.589 191.49 170.806 192.743 171.451C192.958 170.985 192.958 172.381 193.674 171.451C193.621 171.795 193.472 172.117 193.245 172.381C193.14 172.527 193.006 172.65 192.851 172.739H192.672L191.705 172.202L191.096 171.701H191.597C191.275 171.236 191.597 171.415 191.204 171.164C191.633 170.126 191.204 169.696 191.204 168.873C191.92 168.586 191.884 167.763 191.92 167.333V167.083C191.49 166.653 193.352 166.223 192.349 166.259C193.258 163.957 193.883 161.552 194.211 159.099C194.605 158.812 194.426 157.165 195.035 157.81C194.477 156.807 194.24 155.658 194.355 154.516C193.388 153.155 195.357 152.976 194.355 151.58C195.25 151.58 194.355 149.146 195.321 148.43C195.255 148.356 195.171 148.3 195.076 148.269C194.982 148.238 194.882 148.231 194.784 148.251C194.784 145.852 194.784 143.131 194.784 141.09C195.679 139.443 194.784 137.116 196.037 135.72C195.728 134.136 195.728 132.506 196.037 130.922C195.987 129.027 196.266 127.137 196.861 125.337C195.823 124.8 196.002 123.977 195.644 123.189C196.073 121.9 195.858 119.322 196.181 117.389C195.679 117.102 196.181 115.778 195.572 115.706C195.985 112.749 195.985 109.749 195.572 106.791C195.298 103.778 194.66 100.809 193.674 97.9482C193.961 97.1963 194.641 96.2297 194.999 95.3704C194.999 94.3321 193.996 93.5087 193.925 92.4346C193.925 92.4346 193.925 92.4346 193.746 92.6494C193.746 91.6112 192.707 90.7877 192.958 89.4988V88.7112C192.743 88.7112 192.421 88.7112 192.564 89.2482C190.201 80.3692 189.163 70.9174 186.799 61.7878V62.1816V60.3199C186.799 60.3199 186.799 60.3199 186.799 60.5347C186.17 58.2876 185.68 56.0039 185.331 53.6964C185.331 53.6964 185.081 54.1261 184.902 53.6964C185.116 51.9063 183.469 51.2619 184.543 50.1162C184.484 50.0634 184.408 50.0341 184.329 50.0341C184.249 50.0341 184.173 50.0634 184.114 50.1162C183.825 47.816 183.358 45.5417 182.717 43.3137C182.399 42.3407 181.953 41.4138 181.392 40.557C181.083 40.0838 180.632 39.7204 180.103 39.5187C179.71 38.91 178.349 38.0866 178.6 39.0175C178.85 39.9483 178.6 40.3779 178.6 41.1298C178.749 43.1627 178.653 45.2063 178.313 47.2162H178.564C177.914 53.0643 177.639 58.9478 177.74 64.831C177.74 67.0865 177.74 68.626 177.74 70.9174H178.062C177.024 74.784 179.244 78.9371 178.062 82.9828L178.456 82.6964C177.848 83.3408 178.779 85.0593 177.74 84.9161L178.098 85.5964C176.988 88.4606 179.351 90.3939 179.029 93.7951L179.244 93.5445C179.156 94.4053 179.266 95.2749 179.566 96.0865C179.566 96.0865 179.566 96.0865 179.566 95.8C180.596 98.5799 181.188 101.503 181.321 104.464L181.715 104.07C181.836 106.025 182.123 107.965 182.574 109.87V110.837H183.111C183.613 113.021 183.648 115.312 184.078 117.639Z" fill="#7FB562"/>
<path d="M183.325 172.846L184.328 170.876C184.686 170.125 185.151 169.731 185.581 169.874L188.804 170.912C189.663 171.199 190.558 169.588 190.63 167.654L191.525 148.5C191.544 148.226 191.544 147.951 191.525 147.676L189.377 125.622C189.359 125.515 189.359 125.407 189.377 125.3L185.581 102.888V102.386L179.745 84.0556C179.667 83.5334 179.667 83.0025 179.745 82.4803L180.282 65.2951C180.3 64.9971 180.3 64.6981 180.282 64.4001L176.952 38.3359L179.566 139.155V139.334L181.356 171.915C181.32 173.991 182.502 174.564 183.325 172.846Z" fill="#C7E080"/>
<path d="M185.475 173.922V174.172L184.83 174.495L185.475 173.922Z" fill="#CEE490"/>
<path d="M180.426 174.457C180.426 174.457 180.426 174.457 180.749 174.457C180.91 174.795 181.156 175.086 181.464 175.299C181.772 175.513 182.13 175.642 182.503 175.674C183.229 175.71 183.95 175.536 184.58 175.173C184.307 175.592 183.888 175.893 183.405 176.019C182.921 176.145 182.408 176.086 181.966 175.853C180.892 175.388 180.856 174.636 180.426 174.457Z" fill="#CEE490"/>
<path d="M179.924 173.887C179.836 173.801 179.767 173.697 179.719 173.584C179.672 173.47 179.647 173.348 179.647 173.225C179.647 173.102 179.672 172.98 179.719 172.866C179.767 172.752 179.836 172.649 179.924 172.562C179.602 172.849 180.461 173.816 179.924 173.887Z" fill="#CEE490"/>
<path d="M177.739 128.059C177.756 128.117 177.756 128.179 177.739 128.237C177.717 128.18 177.717 128.116 177.739 128.059Z" fill="#CEE490"/>
<path d="M179.06 116.281H179.454C179.248 118.663 179.248 121.059 179.454 123.441C179.776 129.349 179.203 134.826 179.096 140.698C179.096 140.698 179.096 140.698 179.311 140.483C179.12 140.758 179.008 141.08 178.988 141.414C178.988 141.414 178.988 141.414 179.203 141.199C179.919 142.417 178.988 144.78 179.525 145.603C179.525 145.961 179.203 146.14 178.988 145.961C178.988 150.544 179.239 155.449 178.988 160.282C178.988 160.497 179.275 160.533 179.525 160.282C178.95 164.373 179.023 168.529 179.74 172.598C179.454 172.849 179.382 172.061 179.132 172.598C178.702 171.202 179.669 170.128 179.132 169.018H178.881C178.666 168.194 179.561 169.018 179.167 167.944C178.917 167.586 178.809 167.944 178.773 167.944C178.588 166.103 178.672 164.246 179.024 162.43C178.415 162.036 179.024 160.461 178.272 159.817C178.487 159.315 178.272 158.85 178.773 158.635C178.129 152.191 178.308 145.639 177.95 138.98C178.988 135.829 177.556 132.177 177.95 128.489C178.17 127.042 178.17 125.569 177.95 124.122L178.38 122.904C177.162 114.348 177.628 105.54 177.019 96.8401C175.989 87.4457 175.869 77.9738 176.661 68.5563C176.661 68.5563 176.661 68.5563 176.446 68.7353C176.446 65.9427 176.124 63.4007 176.446 60.7871C177.198 54.2711 175.945 47.2538 176.804 40.9526V38.6971H177.592C178.523 45.6427 179.418 53.3761 180.063 60.7155H180.313C180.313 62.3624 180.635 63.902 180.779 65.5489V70.3464C180.975 73.5417 180.975 76.7461 180.779 79.9414C180.685 81.5392 180.685 83.1411 180.779 84.7389C181.208 86.3858 181.566 88.0686 181.924 89.7513C182.515 93.101 183.426 96.3861 184.646 99.5611C185.215 100.519 185.638 101.557 185.899 102.64C186.113 103.822 186.221 105.02 186.221 106.22C186.119 108.452 186.473 110.681 187.26 112.772C188.711 116.495 189.65 120.397 190.053 124.372C190.303 128.354 190.303 132.348 190.053 136.33C190.623 139.968 190.946 143.64 191.019 147.322C190.773 150.897 190.773 154.486 191.019 158.062C190.017 161.428 191.736 165.223 191.234 169.018H190.984C191.077 169.415 191.045 169.832 190.891 170.211C190.737 170.589 190.469 170.911 190.124 171.13C189.551 171.631 188.907 171.452 188.585 171.882C188.585 171.882 188.191 171.882 187.976 171.882C187.761 171.882 187.116 170.199 186.544 170.593V170.235C185.505 169.841 186.544 170.557 185.72 170.486C184.896 170.414 185.469 169.805 184.932 170.128C184.932 170.736 184.646 170.987 184.359 171.417C184.073 171.846 183.822 172.347 184.359 172.67C184.538 172.347 184.61 173.457 185.219 172.92C185.219 172.92 184.538 174.46 184.073 173.994C183.607 173.529 182.676 173.994 182.605 173.063H183.142C182.82 172.598 183.142 172.777 182.748 172.526C183.178 171.596 182.748 170.486 183.464 169.376C184.312 169.063 185.21 168.905 186.114 168.91H186.436C186.651 168.696 187.331 169.197 187.51 169.483C187.689 169.77 187.51 169.949 187.761 169.483C188.585 169.913 188.728 169.125 188.799 166.297C189.193 165.939 188.799 164.292 189.551 164.9C188.88 163.915 188.587 162.719 188.728 161.535C188.728 161.535 188.549 161.535 188.728 161.535C187.761 160.103 189.766 159.924 188.728 158.563C189.623 158.563 188.728 156.129 189.659 155.449C189.444 155.449 189.265 155.198 189.122 155.449C189.122 154.267 189.122 153.014 189.122 151.868V148.825C189.766 147.143 188.37 144.744 189.122 143.204C188.562 141.645 188.318 139.99 188.406 138.335L188.477 137.762C188.103 135.871 188.103 133.925 188.477 132.034C187.367 131.568 187.51 130.745 187.117 129.922C187.216 129.029 187.216 128.129 187.117 127.236C187.117 126.127 187.117 125.267 187.117 124.193C186.615 123.978 187.117 122.546 186.365 122.582C186.478 116.468 185.408 110.389 183.214 104.681C183.385 104.226 183.589 103.783 183.822 103.356C184.073 102.855 184.359 102.676 184.431 102.139C184.503 101.602 184.431 102.139 184.431 102.139C184.252 101.065 183.321 100.313 183.106 99.2747C183.106 99.2747 183.106 99.2747 183.106 99.4895C183.106 98.4513 181.96 97.6636 182.139 96.3747H181.924V95.5871C181.71 95.5871 181.387 95.8019 181.602 96.1599C180.85 93.976 180.206 91.7562 179.597 89.5007L178.702 85.9204L178.272 84.2377C178.156 83.4793 178.097 82.7135 178.093 81.9464C178.487 77.2204 178.881 72.5303 178.952 67.6254L178.702 67.9476L179.167 66.1575C179.134 66.1416 179.097 66.1333 179.06 66.1333C179.023 66.1333 178.986 66.1416 178.952 66.1575C178.881 65.5749 178.881 64.9857 178.952 64.4032C178.916 64.1899 178.916 63.9721 178.952 63.7588V62.8637C178.963 61.6655 178.879 60.4684 178.702 59.2835C178.702 59.2835 178.415 59.6773 178.272 59.2835C178.666 57.5291 177.126 56.7057 178.272 55.7032C178.272 55.7032 177.914 55.7032 177.842 55.7032C177.626 50.9701 177.088 46.2571 176.231 41.5971C176.411 40.1706 176.411 38.7273 176.231 37.3008H177.699C177.885 40.0234 177.801 42.7576 177.449 45.4637H177.699C177.341 51.163 177.353 56.8795 177.735 62.5773C177.735 64.8328 177.735 66.3723 177.735 68.6637H178.022C177.019 72.5303 179.239 76.7192 178.022 80.7649L178.38 80.4785C177.807 81.1229 178.666 82.913 177.628 82.6982L177.95 83.3785C176.625 86.1352 178.738 88.3192 177.95 91.6846L178.201 91.4698C177.988 92.3159 177.988 93.2014 178.201 94.0476C178.201 94.0476 178.201 94.0476 178.201 93.7611C178.668 96.6784 178.668 99.6513 178.201 102.569L178.63 102.246C178.465 104.2 178.465 106.164 178.63 108.118H178.845L178.559 109.049H178.988C179.382 111.555 179.06 113.846 179.06 116.281Z" fill="#CEE490"/>
<path d="M183.895 168.301C183.766 168.414 183.658 168.547 183.572 168.695C183.572 168.695 183.751 168.408 183.895 168.301Z" fill="#CEE490"/>
<path d="M168.753 172.348C171.697 168.594 173.388 164.011 173.587 159.244C173.703 156.303 174.014 153.373 174.518 150.473C176.487 141.88 174.518 127.273 174.052 121.831C173.905 120.433 173.617 119.054 173.193 117.714L161.556 81.4099C161.232 79.8466 160.492 78.3997 159.414 77.2214C158.337 76.0432 156.961 75.1773 155.433 74.7148H154.609L155.182 107.367C155.517 110.379 156.092 113.36 156.901 116.281L163.418 141.343C164.402 145.706 164.954 150.155 165.065 154.626L165.53 170.558C165.53 171.99 166.175 173.028 167.034 173.207C167.371 173.23 167.708 173.162 168.011 173.011C168.313 172.86 168.569 172.631 168.753 172.348Z" fill="#6CAA4B"/>
<path d="M170.578 173.922V174.137H170.005L170.578 173.922Z" fill="#7FB562"/>
<path d="M167.423 174.747C167.423 174.747 167.423 174.747 167.423 174.496C168.14 174.675 168.89 174.675 169.607 174.496C169.607 174.997 168.855 174.962 168.39 174.818C167.924 174.675 167.71 174.532 167.423 174.747Z" fill="#7FB562"/>
<path d="M166.779 174.816C166.652 174.843 166.52 174.841 166.395 174.81C166.269 174.78 166.151 174.721 166.051 174.638C165.952 174.555 165.872 174.451 165.818 174.333C165.764 174.215 165.737 174.087 165.74 173.957C165.704 174.494 166.993 174.387 166.779 174.816Z" fill="#7FB562"/>
<path d="M161.803 140.875C161.803 140.875 161.767 140.911 161.803 140.875V140.875Z" fill="#7FB562"/>
<path d="M161.266 132.033H161.624C161.337 133.788 162.519 135.399 162.626 137.117C163.796 141.226 164.351 145.484 164.274 149.755C164.274 149.755 164.274 149.755 164.488 149.755C164.703 149.755 164.13 150.221 164.166 150.471C164.202 150.722 164.345 150.471 164.381 150.471C165.133 151.331 164.381 153.192 164.703 153.729C164.694 153.787 164.671 153.842 164.635 153.888C164.6 153.935 164.554 153.972 164.501 153.997C164.448 154.022 164.39 154.033 164.332 154.03C164.273 154.027 164.216 154.01 164.166 153.98C164.194 157.471 164.027 160.962 163.665 164.434C163.735 164.493 163.824 164.524 163.916 164.524C164.007 164.524 164.096 164.493 164.166 164.434C163.739 165.91 163.557 167.446 163.629 168.981C163.629 169.733 163.629 170.449 163.629 171.308C163.698 172.454 164.182 173.536 164.99 174.352C164.99 174.71 164.345 174.101 164.56 174.745C162.877 173.278 163.916 171.738 163.343 170.843H163.092C162.877 170.199 163.772 170.843 163.378 170.02C162.985 169.196 163.056 170.02 163.02 170.02C162.883 168.646 163.017 167.26 163.414 165.938C162.841 165.652 163.414 164.47 162.806 164.005C163.02 163.647 162.806 163.289 163.343 163.145C162.841 158.384 163.343 153.479 162.841 148.825C163.701 146.462 161.946 143.991 161.66 141.378C161.81 140.158 161.675 138.92 161.266 137.762L161.516 136.795C158.938 130.888 157.936 124.443 155.931 118.285C154.765 114.871 153.902 111.361 153.352 107.795C153.172 104.284 153.4 100.763 154.033 97.3049C154.033 97.3049 154.033 97.3049 153.818 97.3049C153.997 95.2642 153.567 93.3666 153.818 91.4333C154.103 88.9848 154.139 86.5137 153.925 84.058C153.925 82.8407 153.925 81.5876 153.925 80.4778V78.6876C153.973 78.0016 154.069 77.3196 154.212 76.6469C154.212 75.8235 154.212 75.1074 154.212 74.2839C154.212 73.4605 154.427 74.2839 154.606 74.2839H155.214C155.617 74.3574 156.012 74.4652 156.396 74.6062C157.96 75.2337 159.287 76.3356 160.192 77.7568C161.015 79.0964 161.619 80.5588 161.982 82.0889L163.414 86.3852H163.629C164.632 91.0753 167.21 95.1209 168.284 99.7752C170.289 104.286 170.146 109.8 172.294 114.311C173.26 115.744 173.726 117.455 173.619 119.18C173.549 120.822 173.792 122.462 174.335 124.013C176.288 129.652 176.537 135.741 175.051 141.521C175.233 144.202 174.93 146.895 174.156 149.469C173.366 152.077 173.158 154.827 173.548 157.525C172.652 159.923 174.192 162.859 173.046 165.616H172.796C173.297 166.905 170.934 167.299 171.829 168.337C172.151 169.124 169.931 168.802 170.468 169.411H170.146C169.752 169.912 170.432 169.662 170.146 170.127C169.859 170.592 169.609 169.912 169.573 170.127C170.647 170.915 168.499 171.237 169.573 172.132C169.788 171.81 169.573 172.955 170.397 172.454C170.319 172.706 170.154 172.922 169.931 173.063C169.816 173.161 169.682 173.234 169.537 173.278H169.287L168.463 172.526L167.962 171.917L168.391 172.132C168.177 171.666 168.391 171.845 168.069 171.595C168.535 170.915 168.069 170.413 168.069 169.805C168.749 169.805 168.749 169.124 168.821 168.838V168.623C168.427 168.194 170.182 168.337 169.251 168.122C170.202 166.634 170.869 164.983 171.22 163.253C171.65 163.253 171.471 161.892 172.079 162.429C171.808 162.091 171.611 161.699 171.5 161.28C171.389 160.861 171.367 160.423 171.435 159.995C170.504 158.992 172.473 158.885 171.435 157.811C172.33 157.811 171.435 156.021 172.366 155.52C172.193 155.453 172.002 155.453 171.829 155.52C171.829 153.729 171.829 151.725 172.187 150.006C173.189 149.039 172.187 147.213 173.476 146.426C173.149 145.255 173.149 144.017 173.476 142.846C173.436 141.444 173.705 140.05 174.264 138.764C173.225 138.37 173.44 137.762 173.082 137.189C173.345 135.768 173.525 134.334 173.619 132.892C173.118 132.892 173.619 131.711 173.01 131.675C173.515 129.515 173.588 127.276 173.225 125.088C173.063 123.951 172.823 122.827 172.509 121.722C172.115 120.72 171.721 119.753 171.292 118.894C171.717 118.189 172.1 117.46 172.438 116.71C172.438 115.922 171.471 115.421 171.328 114.633C171.328 113.846 170.361 113.344 170.576 112.342V111.733C170.361 111.733 170.038 111.948 170.218 112.234C167.926 105.826 166.923 98.7728 164.632 92.1851V92.5074V91.2185C164.615 91.2891 164.615 91.3627 164.632 91.4333C164.023 89.8152 163.544 88.151 163.199 86.4568C163.199 86.4568 162.985 86.779 162.77 86.4568C162.985 85.0963 161.409 84.8099 162.447 83.8074C162.366 83.7969 162.284 83.8079 162.209 83.8393C162.133 83.8708 162.067 83.9215 162.018 83.9864C161.773 82.3312 161.303 80.7171 160.621 79.1889C160.275 78.4862 159.815 77.8452 159.261 77.2913C158.96 76.9927 158.591 76.7715 158.186 76.6469C157.834 76.1018 157.302 75.6967 156.683 75.5012V76.6827C156.683 77.2913 156.683 77.6852 156.683 78.437C156.651 79.2237 156.531 80.0044 156.324 80.7642H156.575C156.236 84.7788 156.236 88.8149 156.575 92.8296C156.575 94.5123 156.575 95.658 156.575 97.3407H155.537C154.462 100.205 156.611 103.284 155.537 106.291L155.931 106.076C155.286 106.578 156.217 107.795 155.179 107.723L155.537 108.189C154.427 110.444 156.79 111.769 156.468 114.275V114.06C156.377 114.699 156.49 115.351 156.79 115.922C156.79 115.922 156.79 115.922 156.79 115.707C158.258 117.462 157.793 119.932 158.365 122.009L158.759 121.651C158.473 122.796 159.475 124.551 159.583 125.947L159.834 127.021H160.263C160.8 128.632 160.872 130.35 161.266 132.033Z" fill="#7FB562"/>
<path d="M167.928 170.842L169.324 169.661C169.579 169.449 169.882 169.302 170.207 169.234C170.531 169.165 170.867 169.177 171.186 169.267L176.128 170.699C176.422 170.78 176.73 170.794 177.031 170.739C177.331 170.685 177.615 170.564 177.862 170.385C178.11 170.207 178.314 169.975 178.46 169.707C178.606 169.439 178.69 169.142 178.706 168.837L179.064 155.662C179.099 155.461 179.099 155.255 179.064 155.054L174.66 139.265C174.675 139.194 174.675 139.121 174.66 139.05L167.785 122.652C167.739 122.526 167.679 122.406 167.606 122.294L161.483 107.687C161.269 107.357 161.156 106.971 161.16 106.577L157.58 95.2993C157.614 95.0859 157.614 94.8683 157.58 94.6549L154.572 75.25V103.892L160.229 146.533L164.634 169.589C164.682 169.947 164.826 170.285 165.05 170.568C165.274 170.85 165.571 171.067 165.908 171.196C166.245 171.324 166.611 171.359 166.966 171.297C167.322 171.235 167.654 171.078 167.928 170.842Z" fill="#C7E080"/>
<path d="M169.467 172.668V172.919H168.822L169.467 172.668Z" fill="#CEE490"/>
<path d="M166.139 172.848C166.139 172.848 166.139 172.848 166.139 172.633C166.72 173.069 167.419 173.319 168.145 173.349C167.822 173.85 167.249 173.635 166.855 173.349C166.462 173.062 166.426 172.704 166.139 172.848Z" fill="#CEE490"/>
<path d="M165.636 172.846C165.527 172.863 165.416 172.855 165.311 172.822C165.205 172.789 165.109 172.733 165.029 172.656C164.95 172.58 164.889 172.487 164.851 172.383C164.814 172.279 164.8 172.168 164.813 172.059C164.813 172.524 165.923 172.417 165.636 172.846Z" fill="#CEE490"/>
<path d="M158.294 129.778H158.652C158.186 131.497 159.153 133.359 159.046 135.005C159.553 138.924 159.828 142.869 159.869 146.82V147.894V147.679C159.869 147.93 159.547 148.217 159.619 148.431C159.69 148.646 159.619 148.431 159.834 148.431C160.657 149.219 159.834 151.188 160.55 151.654C160.549 151.713 160.533 151.77 160.505 151.822C160.476 151.873 160.435 151.917 160.385 151.949C160.336 151.981 160.279 152 160.22 152.005C160.161 152.009 160.102 151.999 160.048 151.976C160.514 155.377 161.087 159.136 161.23 162.537C161.23 162.537 161.516 162.537 161.731 162.537C161.462 164.065 161.462 165.628 161.731 167.156C161.731 167.908 162.054 168.66 162.233 169.412L162.555 170.665C162.784 171.306 163.179 171.874 163.701 172.312C163.701 172.67 163.056 172.312 163.307 172.741C162.915 172.482 162.599 172.123 162.391 171.702C162.183 171.28 162.092 170.811 162.125 170.342C162.189 170.125 162.202 169.897 162.165 169.673C162.128 169.45 162.041 169.238 161.91 169.053H161.66C161.373 168.445 162.304 168.803 161.66 168.194C161.015 167.586 161.337 168.194 161.302 168.194C160.921 166.857 160.823 165.454 161.015 164.077C160.406 163.862 160.729 162.609 160.084 162.215C160.084 161.821 160.084 161.463 160.478 161.284C159.296 156.63 158.938 151.868 157.972 146.963C158.795 144.493 157.112 141.951 157.112 139.159C157.325 138.071 157.325 136.952 157.112 135.865L157.47 134.898C155.644 128.668 155.465 122.045 154.212 115.636C153.532 111.698 152.78 108.261 152.242 104.43C152.159 101.069 152.435 97.7082 153.066 94.4056C153.066 94.4056 153.066 94.4056 152.851 94.4056C153.066 92.329 152.851 90.4315 152.851 88.4624C153.639 84.2377 152.851 79.7624 153.353 75.5735H154.713C154.749 76.2413 154.749 76.9106 154.713 77.5784C155.644 83.0562 156.504 89.2142 157.148 95.0858V95.7302H157.399C158.461 99.5123 159.74 103.23 161.23 106.865V107.08C161.23 107.323 161.305 107.561 161.445 107.76L161.91 109.013C164.166 113.202 164.632 118.429 166.888 122.654C166.888 122.654 167.138 123.047 167.281 123.262C169.466 125.697 168.857 130.423 171.041 132.607C172.978 134.959 174.372 137.709 175.123 140.662C175.667 143.6 176.061 146.563 176.305 149.541C177.293 151.487 178.05 153.542 178.561 155.663C178.095 158.821 178.095 162.029 178.561 165.187C178.256 166.494 178.256 167.854 178.561 169.161C178.537 169.546 178.412 169.917 178.198 170.238C177.984 170.559 177.689 170.817 177.343 170.987C176.972 171.155 176.569 171.242 176.161 171.242C175.754 171.242 175.351 171.155 174.98 170.987V170.736C173.762 171.273 173.118 168.982 172.187 170.02C171.471 170.486 171.435 168.23 170.826 168.875V168.516C170.039 168.516 170.826 168.839 170.146 168.982C169.466 169.125 170.146 168.409 169.573 168.695C169.573 169.376 169.251 169.412 168.893 169.662C168.535 169.913 168.391 170.092 168.893 170.629C169.179 170.378 168.893 171.416 169.645 171.13C169.645 171.381 168.678 172.025 168.356 171.488C168.033 170.951 167.174 170.915 167.353 170.092L167.783 170.378C167.783 169.877 167.783 170.092 167.568 169.77C168.033 169.304 167.89 168.946 168.069 168.409C168.151 168.139 168.299 167.893 168.499 167.693C169.358 167.693 170.146 167.335 170.755 167.335L170.969 167.084C171.184 166.834 171.65 167.084 171.793 167.514C171.936 167.944 172.008 167.979 172.008 167.514C172.831 167.872 173.727 168.194 174.622 168.481L175.875 168.875C176.04 168.911 176.211 168.911 176.376 168.875C176.663 169.268 176.842 168.516 177.2 169.233C177.089 168.897 176.946 168.573 176.77 168.266C176.77 168.015 176.77 168.051 176.77 167.657C176.77 167.263 176.77 167.657 176.77 167.657C175.768 166.583 177.773 166.44 176.52 165.402C177.415 165.402 176.305 163.612 177.343 163.11C177.265 163.072 177.179 163.053 177.092 163.053C177.006 163.053 176.92 163.072 176.842 163.11C176.842 161.32 176.591 159.53 176.591 157.847C176.914 157.155 177.026 156.383 176.913 155.628C176.812 155.415 176.759 155.183 176.759 154.947C176.759 154.712 176.812 154.479 176.913 154.267C176.177 153.213 175.755 151.971 175.696 150.687C175.234 149.317 175.111 147.855 175.338 146.426C174.228 146.426 174.264 145.639 173.762 145.102C173.977 144.063 173.333 142.238 173.369 140.698C172.831 140.698 173.369 139.445 172.545 139.624C172.545 139.624 172.545 139.302 172.545 139.051V138.228C172.465 137.679 172.333 137.14 172.151 136.617C171.846 135.495 171.439 134.405 170.934 133.359C169.926 131.26 168.727 129.259 167.353 127.38C167.353 126.735 167.998 125.804 168.248 125.052C168.248 125.052 168.069 125.052 168.248 125.052C168.248 124.265 167.138 123.835 166.959 123.047C166.959 123.047 166.959 123.047 166.959 123.262C166.959 123.477 166.708 122.618 166.673 122.689V122.403C166.484 122.233 166.338 122.022 166.245 121.786C166.152 121.55 166.114 121.295 166.136 121.043V120.398C165.921 120.398 165.634 120.649 165.813 120.899C163.88 116.71 162.519 112.164 160.944 107.688V107.903C160.609 107.34 160.436 106.696 160.442 106.041V106.399C159.977 104.538 159.475 102.819 158.867 100.85V101.172V99.7401C158.844 99.7711 158.831 99.8088 158.831 99.8475C158.831 99.8863 158.844 99.9239 158.867 99.9549C158.272 98.3776 157.828 96.7472 157.542 95.0858V94.6562C157.389 94.6972 157.229 94.6972 157.076 94.6562V94.7994C157.076 93.7969 156.038 93.2957 157.076 92.5796C157.076 92.5796 156.718 92.5796 156.647 92.5796C156.494 89.0344 156.015 85.5109 155.214 82.0537C155.446 79.7543 155.301 77.4325 154.785 75.1797H156.145C156.122 76.005 155.99 76.8237 155.752 77.6142H156.002C155.662 81.6767 155.662 85.7604 156.002 89.8229C156.002 91.5414 156.002 92.687 156.002 94.4056H156.289C155.179 97.2697 157.291 100.456 156.289 103.464L156.683 103.249C156.553 103.359 156.464 103.511 156.432 103.678C156.432 104.215 156.79 104.931 156.002 104.896L156.396 105.361C155.286 107.581 157.506 108.941 156.933 111.555H157.148C156.943 112.183 156.943 112.86 157.148 113.488C157.148 113.488 157.148 113.488 157.148 113.238C158.401 115.171 157.614 117.641 157.972 119.789L158.365 119.503C157.972 120.613 158.724 122.475 158.688 123.907L158.473 124.659H158.938C158.258 126.27 158.115 128.024 158.294 129.778Z" fill="#CEE490"/>
<path d="M169 167.512C168.88 167.577 168.771 167.662 168.678 167.762C168.678 167.762 168.893 167.583 169 167.512Z" fill="#CEE490"/>
<path d="M116.868 159.242V331.094C116.751 333.683 117.476 336.241 118.935 338.384C120.394 340.527 122.508 342.139 124.96 342.98L164.348 353.721C190.144 360.69 217.327 360.69 243.123 353.721L280.541 343.696C282.996 342.891 285.122 341.311 286.601 339.193C288.08 337.075 288.831 334.534 288.741 331.953V159.242C231.67 166.352 173.938 166.352 116.868 159.242Z" fill="#F6F2F1" stroke="black" stroke-width="2"/>
<path d="M116.868 159.314L117.19 156.951V156.915H117.226H117.262L117.369 156.88L117.512 156.844L118.336 157.309L117.763 157.13L117.477 157.023L117.333 156.987L117.262 156.951H117.226H117.19L116.868 159.314Z" fill="#F7F4F3"/>
<path d="M122.701 158.421C122.701 158.421 122.701 158.421 122.451 158.635L119.264 157.203C120.803 156.774 121.699 158.707 122.701 158.421Z" fill="#F7F4F3"/>
<path d="M123.708 158.418C124.084 158.361 124.467 158.393 124.827 158.512C125.188 158.63 125.516 158.83 125.785 159.098C125.391 158.668 123.386 158.919 123.708 158.418Z" fill="#F7F4F3"/>
<path d="M267.256 161.856L267.578 162.214C261.992 161.999 255.797 163.288 249.889 163.323H250.319C235.423 164.469 221.673 164.326 206.814 164.147C207.064 164.147 207.136 164.147 207.387 164.147C206.626 163.947 205.845 163.839 205.059 163.825C204.844 163.825 205.274 163.825 205.56 164.039C202.409 164.756 196.358 163.574 194.424 164.039C193.529 164.039 193.135 163.681 193.637 163.502C182.071 163.18 169.682 162.572 157.83 161.318C157.257 161.318 157.149 161.533 157.293 161.784C147.303 160.065 136.775 159.528 126.535 158.598C126.177 158.275 127.609 158.598 126.535 158.025C129.829 158.025 132.479 159.314 135.522 159.135L135.164 158.812C137.348 158.812 135.522 159.528 137.814 159.421C138.745 159.421 137.635 159.063 138.064 159.099C142.674 159.403 147.264 159.953 151.814 160.746C152.924 160.209 156.791 161.068 158.546 160.746C159.728 161.068 160.909 161.068 161.339 161.497C177.595 162.142 194.174 163.109 210.824 162.858C218.63 163.896 227.94 162.285 237.178 162.178C240.846 162.3 244.518 162.18 248.171 161.82L251.25 162.07L283.834 158.49L289.169 157.881C289.921 157.559 289.599 158.383 289.671 158.848V171.272V187.812C289.957 212.874 290.781 234.785 289.277 259.166C289.277 259.166 289.277 259.166 289.492 258.701C289.277 265.861 289.671 272.163 289.492 278.786C288.561 295.255 289.492 313.049 288.632 328.909C288.825 331.398 288.607 333.902 287.988 336.321C287.242 338.833 285.711 341.041 283.619 342.622C281.424 343.962 278.993 344.873 276.458 345.307L268.903 347.312C258.841 349.925 248.636 352.682 238.682 355.045V355.26C222.896 359.076 206.608 360.393 190.414 359.162C181.901 358.562 173.489 356.964 165.349 354.401C157.078 351.895 148.806 349.353 140.535 347.455C134.915 346.356 129.394 344.8 124.028 342.801C121.375 341.587 119.296 339.393 118.227 336.679C117.316 334.224 116.82 331.635 116.759 329.017C115.524 309.041 115.667 289.004 117.189 269.048C116.58 250.395 118.156 231.813 116.903 213.769C117.69 205.212 115.9 195.868 116.115 186.273L116.401 186.595C115.578 183.015 117.583 179.005 116.401 176.857V177.215C115.793 175.425 117.905 173.026 117.153 171.916L117.475 171.63C117.475 169.446 117.117 171.379 117.01 169.696C117.01 169.052 117.583 169.446 117.404 168.121C116.115 167.835 117.655 162.751 116.222 162.607C116.222 163.789 115.649 160.746 115.363 163.431C115.363 162.643 115.363 158.991 115.9 159.314C116.545 158.991 117.117 157.559 117.619 159.815L117.153 160.244C117.619 160.996 117.368 160.817 117.726 161.104C117.889 162.924 118.237 164.724 118.765 166.474C118.445 167.961 118.445 169.498 118.765 170.985L119.015 171.451C119.588 172.131 117.941 174.78 119.015 173.885C118.8 179.793 118.8 186.595 118.8 193.218C118.442 194.149 118.8 198.267 118.12 196.799C118.874 199.537 119.2 202.375 119.087 205.212C119.128 205.148 119.151 205.074 119.151 204.997C119.151 204.921 119.128 204.847 119.087 204.783C120.125 208.363 118.12 208.971 119.373 212.301C118.514 212.802 119.66 218.352 118.621 220.213C118.836 220.643 119.015 220.75 119.158 220.607C119.158 226.586 119.516 233.21 119.552 238.258C118.765 242.59 119.91 248.748 118.836 252.579C119.242 256.683 119.314 260.814 119.051 264.931V264.537C119.139 269.323 118.876 274.11 118.263 278.858C119.049 280.626 119.44 282.544 119.409 284.479C118.944 287.737 119.087 294.253 118.657 299.229C119.123 299.981 118.442 303.311 119.123 303.561C118.478 310.471 118.263 318.24 118.335 326.081C118.335 328.014 118.335 330.091 118.335 331.917C118.462 333.655 118.976 335.343 119.839 336.858C120.63 338.324 121.79 339.558 123.205 340.438C123.855 340.799 124.555 341.064 125.281 341.225L127.967 341.763C129.721 342.658 131.548 344.018 133.41 345.021C133.589 345.021 133.589 345.021 133.195 344.77C135.773 345.629 138.387 345.629 140.965 346.453C140.965 346.453 140.965 346.453 140.571 346.13C142.934 347.061 145.799 346.954 148.52 348.243H148.735L150.525 348.995C150.525 348.78 150.525 348.422 149.558 348.243C160.838 351.071 171.938 354.866 183.539 356.585C195.207 358.512 207.079 358.885 218.845 357.695H217.95H222.569C222.569 357.695 222.282 357.695 222.067 357.695C227.796 356.621 233.884 356.155 239.398 354.723C239.398 354.723 238.467 354.723 239.183 354.293C243.408 353.9 245.557 351.823 247.956 352.539C247.956 352.539 248.171 352.109 247.741 352.109C253.47 350.785 259.307 349.353 265.107 347.813L273.772 345.45L277.998 343.23L280.146 342.622C280.77 342.458 281.372 342.217 281.936 341.906C284.103 341.008 285.844 339.318 286.806 337.18C287.813 334.847 288.207 332.296 287.952 329.769C287.952 324.47 287.952 319.028 288.382 313.98H288.167C288.99 300.661 288.167 286.519 288.167 272.7C288.167 266.971 288.167 263.105 288.167 257.34H287.88C288.99 247.638 286.878 236.933 288.131 226.801L287.701 227.517C288.346 225.942 287.487 221.395 288.561 222.004L288.238 220.213C289.635 213.339 287.594 207.683 288.489 199.269L288.238 199.806C288.448 197.639 288.448 195.457 288.238 193.29C288.238 193.576 288.238 193.29 288.059 193.97C287.576 186.567 287.576 179.14 288.059 171.737L287.594 172.596C287.859 170.219 287.954 167.826 287.88 165.436C287.88 164.147 287.88 162.786 287.88 161.497V159.815C287.88 159.385 287.522 159.815 287.307 159.636H286.556C286.566 159.707 286.566 159.779 286.556 159.851H284.479V160.316C279 161.104 273.235 161.319 267.256 161.856Z" fill="#F7F4F3"/>
<path d="M118.91 167.225V166.473C118.91 166.473 118.874 166.974 118.91 167.225Z" fill="#F7F4F3"/>
<ellipse rx="6.65301" ry="11.0954" transform="matrix(0.999609 0.0279471 -0.0273395 0.999626 138.954 205.066)" fill="#6F5F5D"/>
<path d="M145.105 205.238C145.023 208.226 144.223 210.886 143.021 212.771C141.813 214.666 140.257 215.702 138.665 215.658C137.073 215.613 135.576 214.492 134.473 212.532C133.376 210.583 132.722 207.882 132.804 204.894C132.886 201.906 133.686 199.246 134.888 197.361C136.096 195.466 137.652 194.43 139.244 194.475C140.836 194.519 142.333 195.641 143.436 197.6C144.533 199.549 145.187 202.25 145.105 205.238Z" stroke="black" stroke-opacity="0.5"/>
<ellipse rx="6.65301" ry="11.0954" transform="matrix(0.999609 0.0279471 -0.0273395 0.999626 166.146 205.035)" fill="#6F5F5D"/>
<path d="M172.296 205.207C172.215 208.195 171.414 210.855 170.212 212.74C169.004 214.635 167.448 215.671 165.856 215.626C164.264 215.582 162.767 214.461 161.665 212.501C160.567 210.552 159.914 207.851 159.995 204.863C160.077 201.875 160.878 199.215 162.079 197.33C163.288 195.435 164.844 194.399 166.436 194.444C168.027 194.488 169.524 195.609 170.627 197.569C171.724 199.518 172.378 202.219 172.296 205.207Z" stroke="black" stroke-opacity="0.5"/>
<ellipse rx="3.1681" ry="3.48713" transform="matrix(0.999609 0.0279471 -0.0273395 0.999626 163.48 200.106)" fill="white"/>
<ellipse rx="3.1681" ry="3.48713" transform="matrix(0.999609 0.0279471 -0.0273395 0.999626 137.792 199.047)" fill="white"/>
</g>
</svg>
