<svg width="72" height="87" viewBox="0 0 72 87" fill="none" xmlns="http://www.w3.org/2000/svg">
<circle cx="36" cy="36" r="36" fill="#D55827"/>
<path d="M60.8496 41.4609L58.6621 39.2734C58.5059 39.1172 58.1934 38.9609 57.959 38.9609C57.7246 38.9609 57.4902 39.1172 57.334 39.2734L43.6621 52.9453L37.4121 46.6172C37.2559 46.4609 36.9434 46.3828 36.7871 46.3828C36.5527 46.3828 36.2402 46.4609 36.084 46.6172L33.8965 48.8828C33.7402 49.0391 33.584 49.2734 33.584 49.5078C33.584 49.7422 33.7402 50.0547 33.8965 50.2109L42.959 59.3516C43.1152 59.5078 43.4277 59.6641 43.584 59.6641C43.8184 59.6641 44.1309 59.5078 44.2871 59.3516L60.8496 42.7891C61.0059 42.6328 61.1621 42.3984 61.1621 42.1641C61.1621 41.9297 61.0059 41.6172 60.8496 41.4609ZM27.4902 20.4453C27.334 19.9766 26.7871 19.6641 26.3184 19.5859H23.1934C22.7246 19.6641 22.1777 19.9766 22.0215 20.4453L16.1621 37.9453C16.1621 38.1016 16.1621 38.2578 16.1621 38.3359C16.1621 39.0391 16.709 39.5859 17.4121 39.5859H18.6621C19.209 39.5859 19.7559 39.2734 19.9121 38.7266L20.8496 35.8359H28.8965L29.834 38.7266C29.9902 39.2734 30.5371 39.5859 31.084 39.5859H32.4121C33.0371 39.5859 33.584 39.0391 33.584 38.3359C33.584 38.2578 33.584 38.1016 33.584 37.9453L27.4902 20.4453ZM22.0996 32.0859L24.9121 24.1953L27.4902 32.0859H22.0996ZM38.0371 39.5859H45.2246C48.4277 39.5859 51.084 36.9297 51.084 33.6484C51.084 32.0859 50.0684 29.9766 48.8184 28.9609C49.3652 28.1016 49.834 26.6172 49.834 25.5234C49.834 22.3203 47.1777 19.6641 43.9746 19.5859H38.0371C36.9434 19.5859 36.1621 20.4453 36.1621 21.4609V37.7109C36.1621 38.8047 36.9434 39.5859 38.0371 39.5859ZM39.9121 23.3359H43.9746C45.1465 23.3359 46.1621 24.3516 46.1621 25.5234C46.1621 26.7734 45.1465 27.7109 43.9746 27.7109H39.9121V23.3359ZM39.9121 31.4609H45.2246C46.3965 31.4609 47.4121 32.4766 47.4121 33.6484C47.4121 34.8984 46.3965 35.8359 45.2246 35.8359H39.9121V31.4609Z" fill="white"/>
</svg>
