<svg width="440" height="47" viewBox="0 0 440 47" fill="none" xmlns="http://www.w3.org/2000/svg">
<path d="M1.944 21C2.592 21.024 3.528 21.12 4.752 21.12C7.056 21.12 8.808 20.664 9.888 19.584C10.608 18.816 11.088 17.808 11.088 16.488C11.088 13.848 9.024 12.672 7.656 12.36V12.288C9.264 11.736 10.44 10.344 10.44 8.688C10.44 7.56 10.104 6.696 9.432 6.048C8.544 5.136 7.224 4.704 5.208 4.704C4.008 4.704 2.856 4.848 1.944 5.064V21ZM3.096 5.832C3.456 5.736 4.08 5.664 5.136 5.664C7.536 5.664 9.264 6.48 9.264 8.76C9.264 10.536 7.8 11.928 5.448 11.928H3.096V5.832ZM3.096 12.864H5.136C7.704 12.864 9.888 13.968 9.888 16.512C9.888 19.272 7.56 20.16 5.088 20.16C4.224 20.16 3.576 20.136 3.096 20.04V12.864ZM24.6932 19.512C23.7572 19.968 22.4132 20.256 21.0452 20.256C16.7012 20.256 14.2052 17.424 14.2052 13.032C14.2052 8.376 16.8692 5.544 21.2372 5.544C22.6052 5.544 23.7812 5.832 24.5972 6.24L24.9572 5.28C24.4772 5.04 23.2772 4.584 21.2132 4.584C16.1012 4.584 13.0052 8.208 13.0052 13.008C13.0052 18.744 16.7492 21.24 20.6612 21.24C22.6532 21.24 24.2132 20.832 25.0292 20.424L24.6932 19.512ZM28.6455 4.632C28.4295 6.12 27.7815 8.712 27.3975 9.72L28.2135 9.6C28.5975 8.928 29.6295 6.192 30.0615 4.392L28.6455 4.632ZM30.2826 20.448C31.0506 20.928 32.1066 21.24 33.2106 21.24C35.5626 21.24 37.0986 19.92 37.0986 17.952C37.0986 16.2 35.9946 15.264 34.1226 14.52C32.5626 13.872 31.7466 13.368 31.7466 12.168C31.7466 11.112 32.5146 10.176 33.9786 10.176C35.1306 10.176 35.8746 10.584 36.2826 10.872L36.7146 9.936C36.1386 9.528 35.2266 9.216 34.1706 9.216C31.9386 9.216 30.6186 10.656 30.6186 12.336C30.6186 13.728 31.6506 14.76 33.5466 15.48C35.2026 16.152 35.9706 16.824 35.9706 18.096C35.9706 19.296 35.1066 20.28 33.2826 20.28C32.2506 20.28 31.3146 19.872 30.6906 19.488L30.2826 20.448ZM45.3737 4.824V21H46.5257V12.912H55.4537V21H56.6057V4.824H55.4537V11.952H46.5257V4.824H45.3737ZM69.3709 9.48H68.2189V16.656C68.2189 17.112 68.1229 17.568 68.0029 17.928C67.4989 19.08 66.2749 20.256 64.5949 20.256C62.3149 20.256 61.5469 18.456 61.5469 15.96V9.48H60.3949V16.176C60.3949 20.52 62.8669 21.264 64.3309 21.264C66.3709 21.264 67.6909 20.016 68.2669 18.936H68.3149L68.3869 21H69.4669C69.3949 20.112 69.3709 19.2 69.3709 18.192V9.48ZM73.2169 18.312C73.2169 19.176 73.1929 20.184 73.1209 21H74.1529L74.2489 18.936H74.2969C75.2089 20.496 76.5529 21.264 78.4249 21.264C80.9449 21.264 83.5609 19.224 83.5609 15.12C83.5609 11.664 81.5449 9.216 78.6409 9.216C76.6009 9.216 75.1849 10.152 74.4169 11.64H74.3689V3.936H73.2169V18.312ZM74.3689 14.256C74.3689 13.848 74.4409 13.536 74.5129 13.248C75.0649 11.328 76.6729 10.176 78.3529 10.176C80.9689 10.176 82.4089 12.504 82.4089 15.144C82.4089 18.144 80.8969 20.304 78.2569 20.304C76.4569 20.304 74.9689 19.152 74.4649 17.4C74.3929 17.112 74.3689 16.824 74.3689 16.56V14.256ZM92.9571 21V10.416H96.0291V9.48H92.9571V8.832C92.9571 6.624 93.3891 4.656 95.5491 4.656C96.2451 4.656 96.6771 4.8 97.0131 4.968L97.3731 4.104C97.0131 3.888 96.3891 3.696 95.6451 3.696C94.7331 3.696 93.7971 4.008 93.0771 4.704C92.1411 5.64 91.8051 7.08 91.8051 8.856V9.48H90.1491V10.416H91.8051V21H92.9571ZM102.007 21.264C104.551 21.264 107.503 19.416 107.503 15.144C107.503 11.616 105.343 9.216 102.151 9.216C99.2948 9.216 96.7028 11.4 96.7028 15.336C96.7028 18.936 99.0068 21.264 101.983 21.264H102.007ZM102.031 20.304C99.6788 20.304 97.8548 18.144 97.8548 15.264C97.8548 12.792 99.1748 10.176 102.127 10.176C105.175 10.176 106.351 13.08 106.351 15.192C106.351 18.144 104.455 20.304 102.055 20.304H102.031ZM110.412 21H111.564V14.64C111.564 14.256 111.588 13.872 111.66 13.536C111.972 11.688 113.1 10.32 114.684 10.32C114.9 10.32 115.068 10.32 115.236 10.344V9.264C115.092 9.24 114.924 9.216 114.756 9.216C113.196 9.216 111.996 10.344 111.492 11.808H111.42L111.372 9.48H110.316C110.388 10.608 110.412 11.784 110.412 12.936V21ZM125.689 21L128.449 11.664C129.169 9.312 129.625 7.704 129.889 6.216H129.937C130.153 7.728 130.537 9.312 131.185 11.688L133.609 21H134.713L139.561 4.824H138.385L135.721 13.92C135.145 15.984 134.617 17.736 134.257 19.488H134.209C133.945 17.832 133.417 15.84 132.889 13.872L130.489 4.824H129.385L126.745 13.944C126.097 16.056 125.521 17.976 125.257 19.488H125.209C124.897 17.976 124.393 16.032 123.865 13.944L121.513 4.824H120.337L124.609 21H125.689ZM145.319 21.264C147.863 21.264 150.815 19.416 150.815 15.144C150.815 11.616 148.655 9.216 145.463 9.216C142.607 9.216 140.015 11.4 140.015 15.336C140.015 18.936 142.319 21.264 145.295 21.264H145.319ZM145.343 20.304C142.991 20.304 141.167 18.144 141.167 15.264C141.167 12.792 142.487 10.176 145.439 10.176C148.487 10.176 149.663 13.08 149.663 15.192C149.663 18.144 147.767 20.304 145.367 20.304H145.343ZM153.725 21H154.877V14.64C154.877 14.256 154.901 13.872 154.973 13.536C155.285 11.688 156.413 10.32 157.997 10.32C158.213 10.32 158.381 10.32 158.549 10.344V9.264C158.405 9.24 158.237 9.216 158.069 9.216C156.509 9.216 155.309 10.344 154.805 11.808H154.733L154.685 9.48H153.629C153.701 10.608 153.725 11.784 153.725 12.936V21ZM162.142 3.936H160.99V21H162.142V16.2L163.318 14.952L168.022 21H169.414L164.11 14.256L168.766 9.48H167.374L163.294 13.752C162.934 14.136 162.478 14.664 162.19 15.024H162.142V3.936ZM171.678 25.752H172.83V19.128H172.878C173.67 20.52 175.134 21.264 176.79 21.264C179.574 21.264 182.022 19.152 182.022 15.048C182.022 11.664 180.03 9.216 177.078 9.216C175.062 9.216 173.646 10.152 172.806 11.664H172.758L172.686 9.48H171.582C171.654 10.584 171.678 11.712 171.678 13.152V25.752ZM172.83 14.208C172.83 13.896 172.926 13.536 172.998 13.224C173.502 11.328 175.134 10.176 176.814 10.176C179.43 10.176 180.87 12.504 180.87 15.096C180.87 18.168 179.358 20.304 176.718 20.304C174.942 20.304 173.406 19.152 172.926 17.376C172.854 17.088 172.83 16.776 172.83 16.464V14.208ZM184.944 21H186.096V3.936H184.944V21ZM197.206 13.752C197.206 11.712 196.558 9.216 193.222 9.216C192.19 9.216 190.894 9.504 189.838 10.2L190.198 11.04C191.038 10.44 192.094 10.176 193.102 10.176C195.838 10.152 196.054 12.432 196.054 13.56V13.872C191.35 13.824 189.022 15.432 189.022 18.096C189.022 19.632 190.078 21.264 192.406 21.264C194.254 21.264 195.526 20.232 196.102 19.344H196.15L196.318 21H197.374C197.23 20.112 197.206 19.176 197.206 18.264V13.752ZM196.054 17.304C196.054 17.496 196.03 17.76 195.934 18C195.55 19.128 194.446 20.304 192.526 20.304C191.326 20.304 190.222 19.56 190.222 17.904C190.222 15.144 193.534 14.76 196.054 14.832V17.304ZM208.56 19.584C207.936 19.872 207.048 20.256 205.68 20.256C203.016 20.256 201.12 18.288 201.12 15.264C201.12 12.552 202.704 10.2 205.8 10.2C207.072 10.2 207.96 10.536 208.512 10.872L208.92 9.936C208.488 9.624 207.312 9.216 205.896 9.216C202.464 9.216 199.968 11.688 199.968 15.36C199.968 18.816 202.176 21.24 205.488 21.24C207.168 21.24 208.368 20.736 208.872 20.496L208.56 19.584ZM220.303 15.12C220.351 14.904 220.351 14.736 220.351 14.424C220.351 12.768 219.631 9.216 215.863 9.216C212.887 9.216 210.679 11.616 210.679 15.456C210.679 18.84 212.743 21.24 216.055 21.24C218.071 21.24 219.247 20.736 219.679 20.496L219.391 19.608C218.743 19.92 217.879 20.256 216.199 20.256C213.823 20.256 211.807 18.792 211.807 15.12H220.303ZM211.879 14.208C212.095 12.432 213.175 10.176 215.719 10.176C218.503 10.176 219.175 12.6 219.151 14.208H211.879ZM242.674 21H243.802L242.722 4.824H241.354L237.73 14.16C236.914 16.344 236.338 17.904 235.93 19.392H235.858C235.402 17.832 234.85 16.2 234.082 14.16L230.602 4.824H229.282L228.106 21H229.234L229.738 13.56C229.93 10.872 230.05 8.064 230.098 6.168H230.146C230.626 7.944 231.322 9.888 232.234 12.408L235.426 21H236.218L239.626 12.216C240.562 9.792 241.21 7.92 241.81 6.168H241.858C241.858 7.944 242.05 10.92 242.194 13.344L242.674 21ZM256.069 15.12C256.117 14.904 256.117 14.736 256.117 14.424C256.117 12.768 255.397 9.216 251.629 9.216C248.653 9.216 246.445 11.616 246.445 15.456C246.445 18.84 248.509 21.24 251.821 21.24C253.837 21.24 255.013 20.736 255.445 20.496L255.157 19.608C254.509 19.92 253.645 20.256 251.965 20.256C249.589 20.256 247.573 18.792 247.573 15.12H256.069ZM247.645 14.208C247.861 12.432 248.941 10.176 251.485 10.176C254.269 10.176 254.941 12.6 254.917 14.208H247.645ZM259.053 21H260.205V13.848C260.205 13.488 260.277 13.104 260.349 12.84C260.805 11.328 262.197 10.176 263.805 10.176C266.181 10.176 266.997 12.072 266.997 14.184V21H268.149V14.088C268.149 9.768 265.221 9.216 264.117 9.216C262.245 9.216 260.781 10.248 260.157 11.544H260.109L260.037 9.48H258.957C259.029 10.392 259.053 11.184 259.053 12.24V21ZM272.353 7.368V9.48H270.409V10.416H272.353V17.688C272.353 18.864 272.545 19.848 273.073 20.448C273.505 20.976 274.201 21.24 275.041 21.24C275.737 21.24 276.265 21.12 276.649 20.976L276.505 20.112C276.217 20.208 275.785 20.28 275.185 20.28C273.961 20.28 273.505 19.368 273.505 17.904V10.416H276.793V9.48H273.505V6.936L272.353 7.368ZM286.503 13.752C286.503 11.712 285.855 9.216 282.519 9.216C281.487 9.216 280.191 9.504 279.135 10.2L279.495 11.04C280.335 10.44 281.391 10.176 282.399 10.176C285.135 10.152 285.351 12.432 285.351 13.56V13.872C280.647 13.824 278.319 15.432 278.319 18.096C278.319 19.632 279.375 21.264 281.703 21.264C283.551 21.264 284.823 20.232 285.399 19.344H285.447L285.615 21H286.671C286.527 20.112 286.503 19.176 286.503 18.264V13.752ZM285.351 17.304C285.351 17.496 285.327 17.76 285.231 18C284.847 19.128 283.743 20.304 281.823 20.304C280.623 20.304 279.519 19.56 279.519 17.904C279.519 15.144 282.831 14.76 285.351 14.832V17.304ZM290.225 21H291.377V3.936H290.225V21ZM300.561 4.824V21H301.713V12.912H310.641V21H311.793V4.824H310.641V11.952H301.713V4.824H300.561ZM324.342 15.12C324.39 14.904 324.39 14.736 324.39 14.424C324.39 12.768 323.67 9.216 319.902 9.216C316.926 9.216 314.718 11.616 314.718 15.456C314.718 18.84 316.782 21.24 320.094 21.24C322.11 21.24 323.286 20.736 323.718 20.496L323.43 19.608C322.782 19.92 321.918 20.256 320.238 20.256C317.862 20.256 315.846 18.792 315.846 15.12H324.342ZM315.918 14.208C316.134 12.432 317.214 10.176 319.758 10.176C322.542 10.176 323.214 12.6 323.19 14.208H315.918ZM334.503 13.752C334.503 11.712 333.855 9.216 330.519 9.216C329.487 9.216 328.191 9.504 327.135 10.2L327.495 11.04C328.335 10.44 329.391 10.176 330.399 10.176C333.135 10.152 333.351 12.432 333.351 13.56V13.872C328.647 13.824 326.319 15.432 326.319 18.096C326.319 19.632 327.375 21.264 329.703 21.264C331.551 21.264 332.823 20.232 333.399 19.344H333.447L333.615 21H334.671C334.527 20.112 334.503 19.176 334.503 18.264V13.752ZM333.351 17.304C333.351 17.496 333.327 17.76 333.231 18C332.847 19.128 331.743 20.304 329.823 20.304C328.623 20.304 327.519 19.56 327.519 17.904C327.519 15.144 330.831 14.76 333.351 14.832V17.304ZM338.225 21H339.377V3.936H338.225V21ZM343.743 7.368V9.48H341.799V10.416H343.743V17.688C343.743 18.864 343.935 19.848 344.463 20.448C344.895 20.976 345.591 21.24 346.431 21.24C347.127 21.24 347.655 21.12 348.039 20.976L347.895 20.112C347.607 20.208 347.175 20.28 346.575 20.28C345.351 20.28 344.895 19.368 344.895 17.904V10.416H348.183V9.48H344.895V6.936L343.743 7.368ZM350.717 21H351.869V13.968C351.869 13.488 351.893 13.176 352.013 12.816C352.517 11.4 353.861 10.224 355.493 10.224C357.845 10.224 358.661 12.12 358.661 14.184V21H359.813V14.064C359.813 9.768 356.885 9.216 355.805 9.216C354.941 9.216 354.149 9.48 353.477 9.888C352.805 10.296 352.253 10.896 351.917 11.544H351.869V3.936H350.717V21Z" fill="#575868"/>
<path d="M2.296 41H7.864V40.36H3.064V30.216H2.296V41ZM14.9783 37.08C15.0103 36.936 15.0103 36.824 15.0103 36.616C15.0103 35.512 14.5303 33.144 12.0182 33.144C10.0343 33.144 8.56225 34.744 8.56225 37.304C8.56225 39.56 9.93825 41.16 12.1463 41.16C13.4903 41.16 14.2743 40.824 14.5623 40.664L14.3703 40.072C13.9383 40.28 13.3623 40.504 12.2423 40.504C10.6583 40.504 9.31425 39.528 9.31425 37.08H14.9783ZM9.36225 36.472C9.50625 35.288 10.2263 33.784 11.9223 33.784C13.7783 33.784 14.2263 35.4 14.2103 36.472H9.36225ZM21.7519 36.168C21.7519 34.808 21.3199 33.144 19.0959 33.144C18.4079 33.144 17.5439 33.336 16.8399 33.8L17.0799 34.36C17.6399 33.96 18.3439 33.784 19.0159 33.784C20.8399 33.768 20.9839 35.288 20.9839 36.04V36.248C17.8479 36.216 16.2959 37.288 16.2959 39.064C16.2959 40.088 16.9999 41.176 18.5519 41.176C19.7839 41.176 20.6319 40.488 21.0159 39.896H21.0479L21.1599 41H21.8639C21.7679 40.408 21.7519 39.784 21.7519 39.176V36.168ZM20.9839 38.536C20.9839 38.664 20.9679 38.84 20.9039 39C20.6479 39.752 19.9119 40.536 18.6319 40.536C17.8319 40.536 17.0959 40.04 17.0959 38.936C17.0959 37.096 19.3039 36.84 20.9839 36.888V38.536ZM24.2175 41H24.9855V36.76C24.9855 36.504 25.0015 36.248 25.0495 36.024C25.2575 34.792 26.0095 33.88 27.0655 33.88C27.2095 33.88 27.3215 33.88 27.4335 33.896V33.176C27.3375 33.16 27.2255 33.144 27.1135 33.144C26.0735 33.144 25.2735 33.896 24.9375 34.872H24.8895L24.8575 33.32H24.1535C24.2015 34.072 24.2175 34.856 24.2175 35.624V41ZM29.0616 41H29.8296V36.232C29.8296 35.992 29.8776 35.736 29.9256 35.56C30.2296 34.552 31.1576 33.784 32.2296 33.784C33.8136 33.784 34.3576 35.048 34.3576 36.456V41H35.1256V36.392C35.1256 33.512 33.1736 33.144 32.4376 33.144C31.1896 33.144 30.2136 33.832 29.7976 34.696H29.7656L29.7176 33.32H28.9976C29.0456 33.928 29.0616 34.456 29.0616 35.16V41ZM37.8478 41.176C38.2478 41.176 38.5038 40.84 38.5038 40.456C38.5038 40.04 38.2478 39.736 37.8638 39.736C37.4798 39.736 37.2078 40.04 37.2078 40.456C37.1918 40.84 37.4638 41.176 37.8318 41.176H37.8478ZM45.2971 41H46.0651V30.856H49.5851V30.216H41.7771V30.856H45.2971V41ZM50.03 41H50.798V36.76C50.798 36.504 50.814 36.248 50.862 36.024C51.07 34.792 51.822 33.88 52.878 33.88C53.022 33.88 53.134 33.88 53.246 33.896V33.176C53.15 33.16 53.038 33.144 52.926 33.144C51.886 33.144 51.086 33.896 50.75 34.872H50.702L50.67 33.32H49.966C50.014 34.072 50.03 34.856 50.03 35.624V41ZM59.5488 36.168C59.5488 34.808 59.1168 33.144 56.8928 33.144C56.2048 33.144 55.3408 33.336 54.6368 33.8L54.8768 34.36C55.4368 33.96 56.1408 33.784 56.8128 33.784C58.6368 33.768 58.7808 35.288 58.7808 36.04V36.248C55.6448 36.216 54.0928 37.288 54.0928 39.064C54.0928 40.088 54.7968 41.176 56.3488 41.176C57.5807 41.176 58.4288 40.488 58.8128 39.896H58.8448L58.9568 41H59.6608C59.5648 40.408 59.5488 39.784 59.5488 39.176V36.168ZM58.7808 38.536C58.7808 38.664 58.7648 38.84 58.7008 39C58.4448 39.752 57.7088 40.536 56.4288 40.536C55.6288 40.536 54.8928 40.04 54.8928 38.936C54.8928 37.096 57.1008 36.84 58.7808 36.888V38.536ZM62.7984 41V33.32H62.0304V41H62.7984ZM62.3984 31.784C62.7824 31.784 63.0224 31.48 63.0224 31.128C63.0224 30.76 62.7664 30.456 62.4144 30.456C62.0624 30.456 61.7904 30.776 61.7904 31.128C61.7904 31.48 62.0304 31.784 62.3824 31.784H62.3984ZM65.3741 41H66.1421V36.232C66.1421 35.992 66.1901 35.736 66.2381 35.56C66.5421 34.552 67.4701 33.784 68.5421 33.784C70.1261 33.784 70.6701 35.048 70.6701 36.456V41H71.4381V36.392C71.4381 33.512 69.4861 33.144 68.7501 33.144C67.5021 33.144 66.5261 33.832 66.1101 34.696H66.0781L66.0301 33.32H65.3101C65.3581 33.928 65.3741 34.456 65.3741 35.16V41ZM74.1603 41.176C74.5603 41.176 74.8163 40.84 74.8163 40.456C74.8163 40.04 74.5603 39.736 74.1763 39.736C73.7923 39.736 73.5203 40.04 73.5203 40.456C73.5043 40.84 73.7763 41.176 74.1443 41.176H74.1603ZM80.2335 30.216V41H81.0015V30.216H80.2335ZM83.8429 41H84.6109V36.232C84.6109 35.992 84.6589 35.736 84.7069 35.56C85.0109 34.552 85.9389 33.784 87.0109 33.784C88.5949 33.784 89.1389 35.048 89.1389 36.456V41H89.9069V36.392C89.9069 33.512 87.9549 33.144 87.2189 33.144C85.9709 33.144 84.9949 33.832 84.5789 34.696H84.5469L84.4989 33.32H83.7789C83.8269 33.928 83.8429 34.456 83.8429 35.16V41ZM91.829 40.632C92.341 40.952 93.045 41.16 93.781 41.16C95.349 41.16 96.373 40.28 96.373 38.968C96.373 37.8 95.637 37.176 94.389 36.68C93.349 36.248 92.805 35.912 92.805 35.112C92.805 34.408 93.317 33.784 94.293 33.784C95.061 33.784 95.557 34.056 95.829 34.248L96.117 33.624C95.733 33.352 95.125 33.144 94.421 33.144C92.933 33.144 92.053 34.104 92.053 35.224C92.053 36.152 92.741 36.84 94.005 37.32C95.109 37.768 95.621 38.216 95.621 39.064C95.621 39.864 95.045 40.52 93.829 40.52C93.141 40.52 92.517 40.248 92.101 39.992L91.829 40.632ZM98.3738 44.168H99.1418V39.752H99.1738C99.7018 40.68 100.678 41.176 101.782 41.176C103.638 41.176 105.27 39.768 105.27 37.032C105.27 34.776 103.942 33.144 101.974 33.144C100.63 33.144 99.6858 33.768 99.1258 34.776H99.0938L99.0458 33.32H98.3098C98.3578 34.056 98.3738 34.808 98.3738 35.768V44.168ZM99.1418 36.472C99.1418 36.264 99.2057 36.024 99.2538 35.816C99.5898 34.552 100.678 33.784 101.798 33.784C103.542 33.784 104.502 35.336 104.502 37.064C104.502 39.112 103.494 40.536 101.734 40.536C100.55 40.536 99.5258 39.768 99.2057 38.584C99.1578 38.392 99.1418 38.184 99.1418 37.976V36.472ZM107.986 41V33.32H107.218V41H107.986ZM107.586 31.784C107.97 31.784 108.21 31.48 108.21 31.128C108.21 30.76 107.954 30.456 107.602 30.456C107.25 30.456 106.978 30.776 106.978 31.128C106.978 31.48 107.218 31.784 107.57 31.784H107.586ZM110.546 41H111.314V36.76C111.314 36.504 111.33 36.248 111.378 36.024C111.586 34.792 112.338 33.88 113.394 33.88C113.538 33.88 113.65 33.88 113.762 33.896V33.176C113.666 33.16 113.554 33.144 113.442 33.144C112.402 33.144 111.602 33.896 111.266 34.872H111.218L111.186 33.32H110.482C110.53 34.072 110.546 34.856 110.546 35.624V41ZM120.885 37.08C120.917 36.936 120.917 36.824 120.917 36.616C120.917 35.512 120.437 33.144 117.924 33.144C115.941 33.144 114.469 34.744 114.469 37.304C114.469 39.56 115.845 41.16 118.053 41.16C119.397 41.16 120.181 40.824 120.469 40.664L120.277 40.072C119.845 40.28 119.269 40.504 118.149 40.504C116.565 40.504 115.221 39.528 115.221 37.08H120.885ZM115.269 36.472C115.413 35.288 116.133 33.784 117.829 33.784C119.685 33.784 120.133 35.4 120.117 36.472H115.269ZM122.926 41.176C123.326 41.176 123.582 40.84 123.582 40.456C123.582 40.04 123.326 39.736 122.942 39.736C122.558 39.736 122.286 40.04 122.286 40.456C122.27 40.84 122.542 41.176 122.91 41.176H122.926Z" fill="#575868"/>
</svg>
